<svg xmlns="http://www.w3.org/2000/svg" width="315" height="301" fill="none" viewBox="0 0 315 301">
  <path fill="#E4E4F4" d="M277.725 161.962c0 17.153-3.98 33.379-11.086 47.807a101.24 101.24 0 0 1-3.562 6.632 108.026 108.026 0 0 1-12.831 17.662c-.709.8-1.417 1.581-2.163 2.344a107.48 107.48 0 0 1-4.143 4.143c-.709.673-1.436 1.345-2.163 1.999-19.192 17.244-44.581 27.747-72.423 27.747-28.897 0-55.159-11.32-74.587-29.746a106.926 106.926 0 0 1-2.144-2.089 105.564 105.564 0 0 1-4.144-4.398 138.728 138.728 0 0 1-2.163-2.489c-.018-.036-.054-.054-.072-.091C70.487 212.676 61 188.418 61 161.962c0-26.457 9.487-50.697 25.244-69.522.018-.036.054-.054.072-.09a92.149 92.149 0 0 1 2.163-2.49 118.43 118.43 0 0 1 4.144-4.397l.09-.091c.673-.672 1.364-1.345 2.054-1.999 19.428-18.443 45.69-29.746 74.587-29.746 27.842 0 53.231 10.503 72.423 27.747a113.345 113.345 0 0 1 4.216 3.998c.709.709 1.4 1.417 2.09 2.144.727.763 1.454 1.563 2.163 2.344a97.401 97.401 0 0 1 2.235 2.58c15.776 18.807 25.244 43.047 25.244 69.522Z"/>
  <path fill="#E4E4F4" d="M180.82 47.63c-15.236-16.86-38.702-23.617-60.689-17.8-43.164 11.414-71.971 53.486-80.058 95.66C31.811 168.65 62.538 220.397 100 240c106.668 55.816 32.792-14.568 63.5 1.5 30.707 16.068 157.057-45.942 100.938-98.945-56.119-53.002-68.986-39.842-72.171-70.97-.962-9.448-5.544-17.424-11.447-23.955Z"/>
  <path fill="#151B5E" d="M233.581 41.871H105.163c-10.432 0-18.901 8.486-18.901 18.898v170.696c.018.037.055.055.073.091a90.578 90.578 0 0 0 2.162 2.489 118.211 118.211 0 0 0 4.235 4.489V60.787c0-6.85 5.58-12.429 12.431-12.429h128.418c6.851 0 12.431 5.579 12.431 12.429v177.765a124.31 124.31 0 0 0 2.09-2.144c.727-.764 1.454-1.563 2.162-2.344a96.208 96.208 0 0 0 2.236-2.581V60.787c-.018-10.43-8.488-18.916-18.919-18.916Z"/>
  <path fill="#fff" d="M246.012 60.787v177.765a113.631 113.631 0 0 1-4.217 3.997c-19.192 17.245-44.581 27.747-72.423 27.747-28.897 0-55.158-11.32-74.586-29.745a104.716 104.716 0 0 1-2.054-1.999V60.787c0-6.85 5.58-12.429 12.431-12.429h128.418c6.851 0 12.431 5.579 12.431 12.429Z"/>
  <path fill="#F44040" d="m272.945 82.52-.181-2.29c-.527-4.761 1.054-9.958 5.47-15.246 3.962-4.67 6.161-8.104 6.161-12.065 0-4.488-2.817-7.486-8.36-7.577-3.162 0-6.688 1.053-8.905 2.725l-2.109-5.542c2.908-2.108 7.924-3.525 12.595-3.525 10.123 0 14.703 6.25 14.703 12.956 0 5.996-3.344 10.303-7.579 15.318-3.871 4.579-5.288 8.45-5.016 12.956l.091 2.29h-6.87Zm-1.944 12.337c0-3.252 2.199-5.542 5.288-5.542 3.09 0 5.198 2.29 5.198 5.542 0 3.09-2.017 5.469-5.288 5.469-3.09-.018-5.198-2.398-5.198-5.469Zm16.138 19.661.491-2.253c.854-4.707 3.853-9.249 9.578-13.047 5.125-3.344 8.214-6.015 9.341-9.812 1.272-4.307-.581-7.977-5.87-9.649-3.035-.909-6.724-.89-9.305.09l-.454-5.923c3.38-1.2 8.596-1.126 13.085.2 9.705 2.89 12.322 10.176 10.414 16.59-1.709 5.742-6.143 8.922-11.614 12.538-5.016 3.289-7.469 6.596-8.487 10.993l-.563 2.217-6.616-1.944Zm-5.361 11.266c.927-3.126 3.689-4.688 6.652-3.816 2.962.872 4.325 3.67 3.398 6.796-.872 2.961-3.489 4.651-6.615 3.725-2.962-.873-4.307-3.744-3.435-6.705Z"/>
  <path fill="#000" d="M252.009 188.309H86.716c-12.067 0-21.827-9.776-21.827-21.823 0-12.065 9.778-21.823 21.827-21.823H252.01c12.067 0 21.827 9.776 21.827 21.823.018 12.047-9.76 21.823-21.827 21.823Z" opacity=".35"/>
  <path fill="#484FA3" d="M252.009 183.294H86.716c-12.067 0-21.827-9.776-21.827-21.823 0-12.065 9.778-21.823 21.827-21.823H252.01c12.067 0 21.827 9.776 21.827 21.823.018 12.047-9.76 21.823-21.827 21.823ZM130.297 120.75v-17.189h3.344v14.264h8.76v2.925h-12.104Zm20.392.127c-1.254 0-2.399-.254-3.417-.745a8.316 8.316 0 0 1-2.635-1.962 8.987 8.987 0 0 1-1.709-2.798 9.02 9.02 0 0 1-.599-3.217c0-1.144.218-2.235.636-3.288a9.158 9.158 0 0 1 1.763-2.781 8.397 8.397 0 0 1 2.671-1.926 8.033 8.033 0 0 1 3.362-.708c1.236 0 2.381.254 3.399.763a8.718 8.718 0 0 1 2.635 1.999 9.01 9.01 0 0 1 1.69 2.816c.4 1.054.6 2.108.6 3.198a8.666 8.666 0 0 1-.636 3.271 8.915 8.915 0 0 1-1.745 2.762 8.348 8.348 0 0 1-2.671 1.908c-1.018.472-2.145.708-3.344.708Zm-4.998-8.722c0 .745.109 1.454.345 2.163.218.69.545 1.308.982 1.835.436.527.945.963 1.581 1.29.618.327 1.326.491 2.126.491.8 0 1.527-.164 2.145-.491a4.832 4.832 0 0 0 1.581-1.326 5.628 5.628 0 0 0 .963-1.854c.218-.69.327-1.381.327-2.089 0-.745-.109-1.454-.345-2.163-.237-.69-.564-1.308-1-1.835-.436-.527-.945-.963-1.581-1.272a4.65 4.65 0 0 0-2.09-.472c-.8 0-1.527.163-2.163.49a4.796 4.796 0 0 0-1.581 1.309 5.89 5.89 0 0 0-.963 1.835 6.872 6.872 0 0 0-.327 2.089Zm27.897 6.651c-1.363 1.363-2.962 2.053-4.798 2.053-1.127 0-2.199-.218-3.18-.672a8.037 8.037 0 0 1-2.599-1.872c-.727-.781-1.309-1.726-1.745-2.798-.436-1.072-.636-2.235-.636-3.471 0-1.181.218-2.289.636-3.325a9.222 9.222 0 0 1 1.763-2.744c.745-.781 1.636-1.399 2.653-1.871a8.056 8.056 0 0 1 3.308-.691c1.617 0 2.999.346 4.144 1.018s2.017 1.581 2.599 2.744l-2.49 1.835a4.688 4.688 0 0 0-1.836-1.963 5.002 5.002 0 0 0-2.562-.672c-.727 0-1.4.145-2 .454a4.708 4.708 0 0 0-1.544 1.254c-.437.527-.764 1.145-1 1.835a6.805 6.805 0 0 0-.345 2.199c0 .8.127 1.563.381 2.271a5.746 5.746 0 0 0 1.073 1.836 4.88 4.88 0 0 0 1.617 1.217 4.688 4.688 0 0 0 2.017.454c1.654 0 3.163-.781 4.508-2.344v-1.217h-3.453v-2.453h6.215v8.831h-2.762v-1.908h.036Zm11.413 1.944v-17.189h3.344v17.189h-3.344Zm10.269-11.011v11.011h-3.344v-17.189h2.598l8.96 11.284v-11.248h3.344v17.153h-2.708l-8.85-11.011Z"/>
  <path fill="#fff" d="M94.151 163.337a6.779 6.779 0 1 0-13.161-3.256 6.779 6.779 0 0 0 13.161 3.256Zm31.197 3.472a6.779 6.779 0 1 0-9.586-9.583 6.779 6.779 0 0 0 9.586 9.583Zm34.795-2.958a6.78 6.78 0 1 0-8.136 5.07 6.78 6.78 0 0 0 8.136-5.07Zm33.473-.599h-13.558a1.544 1.544 0 1 1 0-3.089h13.558a1.544 1.544 0 1 1 0 3.089Zm32.677 0h-13.558a1.544 1.544 0 1 1 0-3.089h13.558c.854 0 1.544.69 1.544 1.544 0 .854-.69 1.545-1.544 1.545Zm32.677 0h-13.558a1.544 1.544 0 1 1 0-3.089h13.558c.854 0 1.544.69 1.544 1.544 0 .854-.69 1.545-1.544 1.545Z"/>
  <path fill="#151B5E" d="m260.739 197.504-5.11 5.042 6.038 6.117 5.11-5.041-6.038-6.118Z"/>
  <path fill="#323744" d="M258.751 123.003c-21.118-21.387-55.703-21.605-77.112-.49-21.391 21.114-21.609 55.693-.491 77.08 20.264 20.533 52.959 21.569 74.459 2.944l5.125-5.052c18.901-21.259 18.302-53.949-1.981-74.482Zm-3.907 73.647c-19.483 19.224-50.996 19.024-70.243-.455-19.228-19.497-19.028-50.987.455-70.23 19.482-19.225 50.996-19.025 70.242.454 19.247 19.48 19.028 50.988-.454 70.231Zm49.179 40.502a8.282 8.282 0 0 0-.727-.89l-30.442-30.836c-1.635-1.672-3.943-2.271-6.088-1.835l-5.125 5.051c-.472 2.126.109 4.452 1.745 6.106l30.441 30.836c.273.272.564.526.873.745 2.58 1.835 6.179 1.617 8.505-.691a6.638 6.638 0 0 0 1.981-4.688 6.46 6.46 0 0 0-1.163-3.798Z"/>
  <path fill="#fff" d="M186.419 196.195c9.45 9.576 21.881 14.5 34.385 14.737-13.104.218-26.28-4.707-36.185-14.737-19.246-19.497-19.046-50.987.437-70.23 9.904-9.776 22.935-14.537 35.857-14.282-12.322.2-24.608 4.96-34.04 14.282-19.483 19.243-19.682 50.733-.454 70.23Z" opacity=".92"/>
  <path fill="#ABE1FF" d="M254.844 196.649c-9.451 9.322-21.718 14.083-34.04 14.283-12.504-.236-24.917-5.161-34.385-14.737-19.228-19.497-19.028-50.987.454-70.23 9.451-9.322 21.718-14.082 34.04-14.282 12.504.236 24.917 5.16 34.367 14.736 19.265 19.479 19.047 50.988-.436 70.23Z" opacity=".27"/>
  <path fill="#484FA3" d="M100.02 193.906h3.18v.636h-2.417v1.962h2.235v.636h-2.235v2.671h-.763v-5.905Zm7.814 3.761c0 1.581-1.09 2.253-2.108 2.253-1.145 0-2.035-.836-2.035-2.18 0-1.418.927-2.253 2.108-2.253 1.218 0 2.035.89 2.035 2.18Zm-3.362.055c0 .926.527 1.635 1.291 1.635.745 0 1.29-.691 1.29-1.654 0-.726-.364-1.635-1.272-1.635-.927 0-1.309.836-1.309 1.654Zm4.344-.818c0-.509 0-.927-.036-1.327h.672l.018.836h.037c.199-.563.654-.926 1.181-.926.091 0 .145 0 .218.018v.727c-.073-.019-.164-.019-.273-.019-.545 0-.927.418-1.036 1a2.254 2.254 0 0 0-.036.363v2.272h-.763v-2.944h.018Zm6.47-1.327a17.54 17.54 0 0 0-.037 1.163v2.472c0 .981-.2 1.58-.599 1.944-.418.381-1.018.509-1.545.509-.509 0-1.072-.128-1.418-.346l.2-.581c.273.182.727.327 1.254.327.782 0 1.363-.418 1.363-1.49v-.472h-.018c-.236.399-.691.708-1.345.708-1.054 0-1.817-.89-1.817-2.071 0-1.436.945-2.253 1.908-2.253.745 0 1.145.381 1.327.745h.018l.036-.636h.673v-.019Zm-.8 1.672c0-.127 0-.254-.036-.345-.146-.454-.527-.818-1.073-.818-.745 0-1.272.618-1.272 1.599 0 .836.418 1.527 1.254 1.527.473 0 .909-.291 1.072-.782a1.52 1.52 0 0 0 .055-.418v-.763Zm5.888.418c0 1.581-1.09 2.253-2.108 2.253-1.145 0-2.035-.836-2.035-2.18 0-1.418.927-2.253 2.108-2.253 1.218 0 2.035.89 2.035 2.18Zm-3.38.055c0 .926.527 1.635 1.29 1.635.746 0 1.291-.691 1.291-1.654 0-.726-.364-1.635-1.272-1.635-.909 0-1.309.836-1.309 1.654Zm5.289-3.362v1.218h1.108v.581h-1.108v2.29c0 .526.145.817.581.817.2 0 .346-.018.455-.054l.036.581a2.003 2.003 0 0 1-.691.109c-.363 0-.654-.109-.836-.327-.218-.236-.29-.6-.29-1.108v-2.326h-.655v-.582h.655v-1.017l.745-.182Zm3.871-.382a9.844 9.844 0 0 1 1.472-.109c.763 0 1.308.182 1.654.491.327.273.527.709.527 1.236s-.164.963-.455 1.272c-.399.436-1.054.654-1.817.654-.236 0-.436 0-.618-.055v2.362h-.763v-5.851Zm.763 2.853c.164.037.382.055.636.055.927 0 1.49-.455 1.49-1.272 0-.782-.545-1.163-1.399-1.163-.327 0-.581.018-.727.054v2.326Zm5.998 2.998-.055-.527h-.018c-.236.328-.691.636-1.309.636-.854 0-1.308-.599-1.308-1.217 0-1.036.909-1.581 2.562-1.581v-.091c0-.345-.09-.981-.963-.981-.4 0-.799.127-1.108.309l-.182-.509c.345-.236.854-.381 1.399-.381 1.309 0 1.618.89 1.618 1.744v1.581c0 .363.018.727.072 1.017h-.708Zm-.109-2.162c-.836-.018-1.8.127-1.8.963 0 .509.327.745.727.745.546 0 .909-.345 1.036-.709a1.07 1.07 0 0 0 .037-.254v-.745Zm1.89 1.381c.236.145.636.309 1.017.309.564 0 .818-.273.818-.636s-.218-.563-.781-.781c-.764-.273-1.127-.691-1.127-1.2 0-.69.545-1.253 1.472-1.253.436 0 .8.127 1.054.254l-.2.563a1.6 1.6 0 0 0-.872-.254c-.455 0-.709.272-.709.581 0 .346.254.509.8.727.745.273 1.108.654 1.108 1.29 0 .745-.581 1.272-1.581 1.272-.472 0-.89-.109-1.199-.29l.2-.582Zm3.471 0c.236.145.636.309 1.017.309.564 0 .818-.273.818-.636s-.218-.563-.781-.781c-.764-.273-1.127-.691-1.127-1.2 0-.69.545-1.253 1.472-1.253.436 0 .8.127 1.054.254l-.2.563a1.6 1.6 0 0 0-.872-.254c-.454 0-.709.272-.709.581 0 .346.255.509.8.727.745.273 1.108.654 1.108 1.29 0 .745-.581 1.272-1.581 1.272-.472 0-.89-.109-1.199-.29l.2-.582Zm3.889-3.471.563 2.163c.128.472.237.908.309 1.344h.019c.09-.436.236-.89.381-1.344l.691-2.163h.654l.654 2.126c.164.509.273.964.382 1.381h.018c.073-.436.182-.872.327-1.381l.6-2.126h.763l-1.363 4.252h-.709l-.654-2.035c-.145-.472-.272-.89-.381-1.399h-.019a14.25 14.25 0 0 1-.381 1.399l-.691 2.017h-.709l-1.29-4.252h.836v.018Zm9.923 2.09c0 1.581-1.09 2.253-2.108 2.253-1.145 0-2.036-.836-2.036-2.18 0-1.418.927-2.253 2.109-2.253 1.217 0 2.035.89 2.035 2.18Zm-3.38.055c0 .926.527 1.635 1.29 1.635.745 0 1.29-.691 1.29-1.654 0-.726-.363-1.635-1.272-1.635-.908 0-1.308.836-1.308 1.654Zm4.361-.818c0-.509 0-.927-.036-1.327h.673l.018.836h.036c.2-.563.654-.926 1.181-.926.091 0 .146 0 .218.018v.727c-.072-.019-.163-.019-.254-.019-.545 0-.927.418-1.036 1a2.254 2.254 0 0 0-.036.363v2.272h-.764v-2.944Zm6.452-3.307v5.142c0 .382 0 .8.037 1.09h-.691l-.036-.745h-.019c-.236.473-.763.836-1.453.836-1.036 0-1.818-.872-1.818-2.162 0-1.417.872-2.29 1.908-2.29.655 0 1.091.309 1.291.655h.018v-2.544h.763v.018Zm-.781 3.707c0-.091 0-.237-.037-.327a1.12 1.12 0 0 0-1.108-.891c-.8 0-1.272.709-1.272 1.636 0 .854.418 1.58 1.254 1.58a1.14 1.14 0 0 0 1.126-.926c.019-.109.037-.218.037-.327v-.745Zm2.653.854-.018-.236c-.055-.473.109-1 .545-1.527.4-.472.618-.799.618-1.199 0-.454-.273-.745-.836-.763-.309 0-.672.109-.891.272l-.218-.545c.291-.218.782-.345 1.254-.345 1.018 0 1.472.618 1.472 1.29 0 .6-.327 1.036-.763 1.526-.381.455-.527.836-.509 1.291v.236h-.654Zm-.182 1.217c0-.327.218-.545.527-.545.309 0 .527.236.527.545 0 .309-.2.545-.527.545s-.527-.236-.527-.545Z"/>
  <path fill="#fff" d="m71.616 86.573 2.725-.888-2.725-.888a4.813 4.813 0 0 1-3.06-3.066L67.672 79l-.886 2.731a4.813 4.813 0 0 1-3.06 3.066L61 85.685l2.725.888a4.813 4.813 0 0 1 3.06 3.066l.886 2.731.886-2.73a4.74 4.74 0 0 1 3.06-3.067Zm34.553-26.359 1.839-.603-1.839-.603a3.207 3.207 0 0 1-2.073-2.078l-.602-1.843-.602 1.843a3.212 3.212 0 0 1-2.073 2.078l-1.84.603 1.84.603a3.212 3.212 0 0 1 2.073 2.078l.602 1.843.602-1.843a3.208 3.208 0 0 1 2.073-2.078Z"/>
  <path fill="#484FA3" d="M84.345 40.294a2.29 2.29 0 1 0-4.457-1.06 2.29 2.29 0 1 0 4.457 1.06Z"/>
  <path fill="#fff" d="m90.513 122.644 5.267-1.726-5.267-1.726a9.237 9.237 0 0 1-5.901-5.914L82.89 108l-1.722 5.278c-.92 2.798-3.11 5.009-5.902 5.914L70 120.918l5.266 1.726a9.237 9.237 0 0 1 5.902 5.914l1.722 5.278 1.722-5.278a9.274 9.274 0 0 1 5.901-5.914Z"/>
  <path fill="#484FA3" d="M46.986 157.294a2.29 2.29 0 1 0-4.457-1.061 2.29 2.29 0 1 0 4.457 1.061Z"/>
</svg>
