<svg xmlns="http://www.w3.org/2000/svg" width="167" height="48" fill="none" viewBox="0 0 167 48">
  <path fill="#484FA3" d="M12.05 5.112c3.256 0 6.101.645 8.536 1.936 2.435 1.29 4.312 3.11 5.632 5.456 1.35 2.317 2.024 5.001 2.024 8.052 0 3.021-.675 5.705-2.024 8.052-1.32 2.347-3.212 4.165-5.676 5.456C18.107 35.354 15.277 36 12.05 36H.478V5.112H12.05Zm-.484 24.376c2.845 0 5.06-.777 6.644-2.332 1.584-1.555 2.376-3.755 2.376-6.6 0-2.845-.792-5.06-2.376-6.644-1.584-1.584-3.799-2.376-6.644-2.376H8.002v17.952h3.564Zm19.385-5.808c0-2.523.47-4.737 1.408-6.644.968-1.907 2.273-3.373 3.916-4.4 1.642-1.027 3.476-1.54 5.5-1.54 1.73 0 3.241.352 4.532 1.056 1.32.704 2.332 1.628 3.036 2.772v-3.476h7.524V36h-7.524v-3.476c-.734 1.144-1.76 2.068-3.08 2.772-1.29.704-2.802 1.056-4.532 1.056-1.995 0-3.814-.513-5.456-1.54-1.643-1.056-2.948-2.537-3.916-4.444-.939-1.936-1.408-4.165-1.408-6.688Zm18.392.044c0-1.877-.528-3.359-1.584-4.444-1.027-1.085-2.288-1.628-3.784-1.628s-2.772.543-3.828 1.628c-1.027 1.056-1.54 2.523-1.54 4.4 0 1.877.513 3.373 1.54 4.488 1.056 1.085 2.332 1.628 3.828 1.628s2.757-.543 3.784-1.628c1.056-1.085 1.584-2.567 1.584-4.444ZM66.094 8.896c-1.32 0-2.405-.381-3.256-1.144-.821-.792-1.232-1.76-1.232-2.904 0-1.173.41-2.141 1.232-2.904.85-.792 1.936-1.188 3.256-1.188 1.29 0 2.347.396 3.168 1.188.85.763 1.276 1.73 1.276 2.904 0 1.144-.425 2.112-1.276 2.904-.821.763-1.877 1.144-3.168 1.144Zm3.74 2.552V36H62.31V11.448h7.524ZM82.811 3.44V36h-7.524V3.44h7.524Zm30.532 8.008-15.4 36.212h-8.096l5.632-12.496-9.988-23.716h8.404l5.676 15.356 5.632-15.356h8.14Z"/>
  <path fill="#FDD64D" d="M136.172 5.112v6.028h-12.584v6.512h9.416v5.852h-9.416V36h-7.524V5.112h20.108Zm7.738 3.784c-1.32 0-2.405-.381-3.256-1.144-.821-.792-1.232-1.76-1.232-2.904 0-1.173.411-2.141 1.232-2.904.851-.792 1.936-1.188 3.256-1.188 1.291 0 2.347.396 3.168 1.188.851.763 1.276 1.73 1.276 2.904 0 1.144-.425 2.112-1.276 2.904-.821.763-1.877 1.144-3.168 1.144Zm3.74 2.552V36h-7.524V11.448h7.524Zm19.137 18.172V36h-3.828c-2.728 0-4.855-.66-6.38-1.98-1.525-1.35-2.288-3.535-2.288-6.556v-9.768h-2.992v-6.248h2.992V5.464h7.524v5.984h4.928v6.248h-4.928v9.856c0 .733.176 1.261.528 1.584.352.323.939.484 1.76.484h2.684Z"/>
</svg>
