<svg xmlns="http://www.w3.org/2000/svg" width="254" height="214" fill="none" viewBox="0 0 254 214">
  <path fill="#E4E4F4" d="M243.236 158.155c-13.284 23.186-38.973 40.908-77.815 40.908H81.184c-22.454 0-43.51-10.78-56.045-28.876-10.828-15.641-18.665-35.347-22.486-56.012-3.251-17.543-3.625-35.77-.504-52.808C14.67-7.165 84.826.233 84.826.233c67.506 4.732 45.589 50.63 105.389 50.63 58.825.017 78.141 63.426 53.021 107.292Z"/>
  <path fill="#fff" d="m28.616 80.573 2.725-.888-2.725-.888a4.813 4.813 0 0 1-3.06-3.066L24.672 73l-.886 2.731a4.813 4.813 0 0 1-3.06 3.066L18 79.685l2.725.888a4.813 4.813 0 0 1 3.06 3.066l.886 2.731.886-2.73a4.74 4.74 0 0 1 3.06-3.067Zm204 15 2.725-.888-2.725-.888a4.812 4.812 0 0 1-3.059-3.066L228.671 88l-.886 2.731a4.814 4.814 0 0 1-3.06 3.066l-2.725.888 2.725.888a4.814 4.814 0 0 1 3.06 3.066l.886 2.731.886-2.73a4.74 4.74 0 0 1 3.059-3.067ZM68.189 12.127l1.839-.603-1.84-.603a3.21 3.21 0 0 1-2.072-2.078L65.514 7l-.602 1.843a3.21 3.21 0 0 1-2.073 2.078L61 11.524l1.839.603a3.21 3.21 0 0 1 2.073 2.078l.602 1.843.602-1.843a3.21 3.21 0 0 1 2.073-2.078ZM29.513 127.644l5.267-1.726-5.267-1.726a9.237 9.237 0 0 1-5.901-5.914L21.89 113l-1.722 5.278c-.92 2.798-3.11 5.009-5.902 5.914L9 125.918l5.266 1.726a9.237 9.237 0 0 1 5.902 5.914l1.722 5.278 1.722-5.278a9.274 9.274 0 0 1 5.901-5.914Z"/>
  <path fill="#484FA3" d="M176.509 29.873c-8.942-8.942-20.844-13.869-33.493-13.869-12.649 0-24.551 4.927-33.493 13.869-8.357 8.357-13.202 19.283-13.804 30.99a42.845 42.845 0 0 0-.065 2.52v64.092h94.74V63.366c-.016-12.65-4.942-24.55-13.885-33.493Zm2.537 86.253H106.97v-52.76c0-.845.033-1.69.081-2.52C108.352 42.148 123.977 27.32 143 27.32c19.868 0 36.046 16.162 36.046 36.046v52.76Z"/>
  <path fill="#484FA3" d="M208.653 133.312v.683c-.374 35.997-29.656 65.051-65.734 65.051-36.306 0-65.751-29.428-65.751-65.75 0-1.919.081-3.805.244-5.675.016-.244.048-.504.065-.748.016-.244.048-.488.08-.748.017-.211.05-.439.082-.65.017-.081.017-.179.033-.26.016-.179.049-.358.065-.553v-.032c.032-.244.065-.488.097-.716.033-.276.082-.553.114-.813.098-.634.212-1.268.325-1.902.033-.179.065-.374.098-.553.032-.179.065-.341.097-.52.05-.228.098-.455.147-.667.049-.195.081-.406.13-.601.049-.244.114-.472.162-.716.05-.244.114-.471.163-.715.163-.683.341-1.366.537-2.032.016-.033.016-.082.032-.114.13-.456.26-.895.407-1.35.065-.227.146-.455.21-.683.066-.227.147-.455.228-.683.082-.227.147-.455.228-.682l.244-.683c.325-.911.667-1.805 1.024-2.683.18-.439.358-.878.553-1.317.098-.211.195-.439.293-.65.081-.179.146-.342.227-.521.13-.292.277-.585.407-.878.081-.178.179-.357.26-.536.098-.211.211-.423.309-.634.097-.212.211-.423.325-.634.212-.423.44-.846.667-1.252.114-.212.227-.423.341-.618.114-.211.228-.423.342-.618.097-.179.195-.358.309-.536.032-.049.065-.114.097-.163.081-.146.163-.293.26-.423.163-.276.342-.553.504-.829.098-.163.195-.309.293-.472.13-.195.26-.39.374-.601.26-.39.52-.797.78-1.187.277-.406.553-.797.83-1.203l.39-.537c.097-.146.195-.276.292-.406.082-.114.163-.228.26-.342a66.538 66.538 0 0 1 2.114-2.682c.147-.18.31-.374.455-.553.163-.195.326-.374.488-.57.016-.015.033-.048.049-.064.163-.179.325-.374.488-.553l.487-.537c.033-.032.05-.065.082-.08l.471-.521.033-.033c.179-.195.358-.374.536-.569.098-.114.212-.211.31-.325.26-.276.52-.536.78-.797.374-.374.748-.731 1.121-1.105.196-.179.374-.358.57-.537l.016-.016.553-.504.048-.049c.18-.162.374-.341.553-.504.195-.162.39-.341.586-.504l.016-.016c.39-.342.797-.683 1.187-1.008.618-.504 1.235-1.008 1.869-1.48l.618-.471c.212-.163.423-.31.634-.472.212-.162.423-.309.635-.455.211-.146.422-.309.65-.455.195-.147.406-.277.601-.423.277-.195.57-.39.862-.569.033-.016.049-.033.081-.049.147-.097.277-.179.423-.276.212-.147.439-.276.651-.407.032-.016.048-.032.081-.048.195-.114.39-.244.585-.358.016-.016.033-.016.049-.033.211-.13.439-.26.65-.39.212-.13.439-.26.667-.39.016-.016.032-.016.049-.032.162-.098.309-.18.471-.277a75.717 75.717 0 0 1 2.992-1.593c.227-.114.471-.228.699-.342.016 0 .016-.016.032-.016.228-.114.472-.228.7-.325l.731-.342c.244-.113.472-.211.716-.325h.016c.244-.097.488-.211.732-.309.195-.081.406-.162.601-.26.293-.114.585-.244.878-.358.244-.097.504-.195.748-.292.244-.098.504-.195.748-.277.244-.097.504-.178.764-.276.228-.081.472-.163.699-.244.179-.065.358-.114.537-.179.162-.048.341-.114.504-.162.195-.065.39-.13.585-.18.244-.08.504-.145.748-.227a36.82 36.82 0 0 1 1.431-.406c.097-.033.211-.049.309-.082.195-.048.406-.113.601-.162.228-.049.439-.114.667-.163.146-.032.309-.081.455-.114.179-.048.342-.08.52-.113.244-.05.488-.114.732-.163.26-.065.537-.114.797-.163.26-.048.536-.113.796-.162a342.36 342.36 0 0 1 1.626-.293c.277-.049.537-.081.813-.13l1.008-.146c.212-.033.423-.049.634-.082l.748-.097c.065-.016.13-.016.212-.033.162-.016.325-.032.504-.048a2.55 2.55 0 0 1 .374-.033c.113-.016.244-.016.357-.032.147-.017.277-.033.423-.033.033 0 .065 0 .098-.016h.065a64.143 64.143 0 0 1 5.609-.244 65.52 65.52 0 0 1 36.143 10.812 65.1 65.1 0 0 1 11.333 9.447 65.974 65.974 0 0 1 7.381 9.218c6.975 10.357 10.975 22.811 10.975 36.209Z"/>
  <path fill="#0071BC" d="M179.712 99.152c-8.958-8.325-20.957-13.414-34.16-13.414-27.737 0-50.207 22.486-50.207 50.208 0 13.202 5.089 25.201 13.414 34.159-9.87-9.17-16.048-22.258-16.048-36.793 0-27.738 22.486-50.208 50.208-50.208 14.535 0 27.623 6.179 36.793 16.048Z"/>
  <path fill="#000" d="M179.712 99.152c-8.958-8.325-20.957-13.414-34.16-13.414-27.737 0-50.207 22.486-50.207 50.208 0 13.202 5.089 25.201 13.414 34.159-9.87-9.17-16.048-22.258-16.048-36.793 0-27.738 22.486-50.208 50.208-50.208 14.535 0 27.623 6.179 36.793 16.048Z" opacity=".2"/>
  <path fill="#59607C" d="M193.126 133.312c0 27.738-22.486 50.207-50.208 50.207-13.202 0-25.201-5.089-34.159-13.413-8.325-8.959-13.414-20.958-13.414-34.16 0-27.738 22.486-50.207 50.207-50.207 13.202 0 25.201 5.088 34.16 13.413 8.325 8.959 13.414 20.974 13.414 34.16Z"/>
  <path fill="#FAFAFF" d="M193.126 133.312c0 27.738-22.486 50.207-50.208 50.207-13.202 0-25.201-5.089-34.159-13.413-8.325-8.959-13.414-20.958-13.414-34.16 0-27.738 22.486-50.207 50.207-50.207 13.202 0 25.201 5.088 34.16 13.413 8.325 8.959 13.414 20.974 13.414 34.16Z"/>
  <path fill="#fff" d="M142.918 73.056c-33.281 0-60.255 26.974-60.255 60.255-3.073 0-5.495-2.617-5.235-5.674 2.715-31.786 28.046-57.117 59.832-59.832 3.041-.244 5.658 2.178 5.658 5.251Z" opacity=".2"/>
  <path fill="#323744" d="M155.422 116.712c0 2.406-.683 4.65-1.854 6.568-.406.65-.862 1.268-1.382 1.837-.13.147-.276.293-.423.439a12.456 12.456 0 0 1-8.844 3.659c-4.504 0-8.439-2.374-10.65-5.935-1.187-1.902-1.853-4.162-1.853-6.568 0-2.472.715-4.764 1.951-6.699a12.112 12.112 0 0 1 1.723-2.146 12.487 12.487 0 0 1 8.845-3.659c3.447 0 6.585 1.399 8.845 3.659.65.65 1.219 1.365 1.723 2.146.374.585.699 1.187.959 1.837.602 1.496.96 3.138.96 4.862Z"/>
  <path fill="#323744" d="M142.919 165.163c-5.041 0-9.024-4.244-8.715-9.268l2.048-32.973c.212-3.528 3.138-6.276 6.683-6.276a6.704 6.704 0 0 1 6.682 6.276l2.049 32.973c.276 5.024-3.723 9.268-8.747 9.268Z"/>
  <path fill="#fff" d="M144.674 20.524c0 .976-.78 1.756-1.756 1.756-10.194 0-19.559 3.658-26.843 9.707-8.438 7.024-14.096 17.283-15.056 28.86h-3.528c.813-10.862 5.431-20.975 13.219-28.747l.113-.113c8.585-8.536 19.983-13.235 32.095-13.235.96.016 1.756.797 1.756 1.772Z" opacity=".2"/>
  <path fill="#000" d="M197.759 97.055a22.055 22.055 0 0 0-4.552-.472c-.959 0-1.902.065-2.829.179a21.863 21.863 0 0 0-11.332 5.008 22.055 22.055 0 0 0-6.715 10.064H154.43a12.44 12.44 0 0 1 .975 4.877c0 3.236-1.219 6.179-3.235 8.406h20.161c.26.797.552 1.577.894 2.342 3.349 7.446 10.747 12.681 19.397 12.909h.585c6.032 0 11.479-2.439 15.446-6.373v-.683c0-13.398-4-25.852-10.894-36.258Zm-4.552 30.241c-.146 0-.293 0-.455-.016a8.757 8.757 0 0 1-2.374-.456 8.826 8.826 0 0 1-2.325-15.51 9.025 9.025 0 0 1 2.325-1.204 9.062 9.062 0 0 1 2.829-.455c4.861 0 8.812 3.951 8.812 8.812 0 4.878-3.934 8.829-8.812 8.829Z" opacity=".2"/>
  <path fill="#89A5AF" d="M191.386 94.746c-9.788 0-18.063 6.406-20.876 15.267h-38.16a12.437 12.437 0 0 0-1.951 6.699c0 2.406.683 4.65 1.854 6.568h38.24c2.813 8.845 11.089 15.267 20.877 15.267 12.096 0 21.901-9.804 21.901-21.9 0-12.097-9.805-21.9-21.885-21.9Zm0 30.713c-4.861 0-8.812-3.951-8.812-8.812 0-4.862 3.951-8.813 8.812-8.813 4.862 0 8.812 3.951 8.812 8.813 0 4.861-3.95 8.812-8.812 8.812Z"/>
  <path fill="#fff" d="m199.076 109.655-.016-.016a10.36 10.36 0 0 0-7.674-3.382c-5.739 0-10.389 4.65-10.389 10.389 0 3.041 1.3 5.772 3.381 7.675l.017.016a10.372 10.372 0 0 0 6.991 2.699c5.739 0 10.389-4.65 10.389-10.39 0-2.682-1.024-5.137-2.699-6.991Zm-7.69 15.804c-4.861 0-8.812-3.951-8.812-8.813 0-4.861 3.951-8.812 8.812-8.812 4.861 0 8.812 3.951 8.812 8.812 0 4.862-3.951 8.813-8.812 8.813Z" opacity=".2"/>
  <path fill="#000" d="M202.458 117.329c0 5.74-4.65 10.39-10.389 10.39a10.36 10.36 0 0 1-7.674-3.382 10.372 10.372 0 0 0 6.991 2.699c5.739 0 10.389-4.65 10.389-10.389a10.41 10.41 0 0 0-2.698-6.992c2.064 1.903 3.381 4.634 3.381 7.674Z" opacity=".1"/>
  <path fill="#000" d="M137.618 116.711c0 2.407.683 4.65 1.854 6.569h-7.219c-1.187-1.902-1.854-4.162-1.854-6.569 0-2.471.716-4.764 1.951-6.698h7.219a12.423 12.423 0 0 0-1.951 6.698Z" opacity=".2"/>
  <path fill="#fff" d="M139.569 46.425a14.39 14.39 0 0 1-4.227 10.21 14.39 14.39 0 0 1-10.211 4.227H40.764c-7.967 0-14.438-6.454-14.438-14.437a14.39 14.39 0 0 1 4.227-10.21 14.389 14.389 0 0 1 10.211-4.228h84.367c7.967 0 14.438 6.47 14.438 14.438Z"/>
  <path fill="#fff" d="m62.486 60.862 9.332 9.317v-9.317h-9.332Z"/>
  <path fill="#484FA3" d="M40.65 43.596c.244 0 .602.097 1.073.308l1.87.895-.049-3.886c.147-.114.374-.244.667-.358a2.67 2.67 0 0 1 .976-.179c.439 0 .829.114 1.138.342.308.227.471.585.471 1.089 0 .179-.016.585-.065 1.22a60.77 60.77 0 0 1-.163 1.853l3.252-1.691c.325.146.618.39.895.715.26.326.406.716.406 1.155 0 .439-.13.764-.374.96-.26.194-.585.39-1.008.6l-2.146.976 2.585 3.252c-.081.439-.309.83-.667 1.138-.357.309-.764.472-1.203.472-.439 0-.797-.147-1.057-.423-.26-.277-.536-.618-.829-1.008l-1.252-1.789-2.146 3.122a.915.915 0 0 1-.374.081h-.341c-.683 0-1.203-.146-1.545-.439a1.419 1.419 0 0 1-.52-1.121c0-.44.227-.927.666-1.431l1.691-1.919-3.479-1.122a3.814 3.814 0 0 1-.179-1.154c0-.504.146-.91.44-1.22a1.91 1.91 0 0 1 1.267-.438Zm18.942 0c.244 0 .602.097 1.073.308l1.87.895-.049-3.886c.146-.114.374-.244.667-.358.292-.114.617-.179.975-.179.44 0 .83.114 1.138.342.31.227.472.585.472 1.089 0 .179-.016.585-.065 1.22a60.458 60.458 0 0 1-.163 1.853l3.252-1.691c.325.146.618.39.894.715.26.326.407.716.407 1.155 0 .439-.13.764-.374.96-.26.194-.586.39-1.008.6l-2.147.976 2.586 3.252c-.082.439-.31.83-.667 1.138-.358.309-.764.472-1.203.472-.44 0-.797-.147-1.057-.423-.26-.277-.537-.618-.83-1.008l-1.251-1.789-2.146 3.122a.915.915 0 0 1-.374.081h-.342c-.682 0-1.203-.146-1.544-.439a1.419 1.419 0 0 1-.52-1.121c0-.44.227-.927.666-1.431l1.691-1.919-3.48-1.122a3.814 3.814 0 0 1-.178-1.154c0-.504.146-.91.439-1.22a1.91 1.91 0 0 1 1.268-.438Zm18.942 0c.243 0 .601.097 1.073.308l1.87.895-.05-3.886c.147-.114.375-.244.667-.358a2.67 2.67 0 0 1 .976-.179c.439 0 .829.114 1.138.342.309.227.471.585.471 1.089 0 .179-.016.585-.065 1.22a60.77 60.77 0 0 1-.162 1.853l3.252-1.691c.325.146.617.39.894.715.26.326.406.716.406 1.155 0 .439-.13.764-.374.96-.26.194-.585.39-1.008.6l-2.146.976 2.585 3.252a1.96 1.96 0 0 1-.666 1.138c-.358.309-.764.472-1.203.472-.44 0-.797-.147-1.057-.423-.26-.277-.537-.618-.83-1.008l-1.251-1.789-2.147 3.122a.915.915 0 0 1-.374.081h-.341c-.683 0-1.203-.146-1.545-.439a1.419 1.419 0 0 1-.52-1.121c0-.44.228-.927.667-1.431l1.69-1.919-3.479-1.122a3.81 3.81 0 0 1-.179-1.154c0-.504.147-.91.44-1.22.357-.292.747-.438 1.268-.438Zm18.925 0c.244 0 .602.097 1.073.308l1.87.895-.049-3.886c.146-.114.374-.244.667-.358.292-.114.617-.179.975-.179.439 0 .829.114 1.138.342.309.227.472.585.472 1.089 0 .179-.017.585-.065 1.22a61.396 61.396 0 0 1-.163 1.853l3.252-1.691c.325.146.618.39.894.715.26.326.407.716.407 1.155 0 .439-.13.764-.374.96a6.6 6.6 0 0 1-1.008.6l-2.147.976 2.586 3.252c-.082.439-.309.83-.667 1.138-.358.309-.764.472-1.203.472-.439 0-.797-.147-1.057-.423-.26-.277-.537-.618-.829-1.008l-1.252-1.789-2.146 3.122a.915.915 0 0 1-.374.081h-.342c-.683 0-1.203-.146-1.544-.439a1.419 1.419 0 0 1-.52-1.121c0-.44.227-.927.666-1.431l1.691-1.919-3.48-1.122a3.814 3.814 0 0 1-.178-1.154c0-.504.146-.91.439-1.22a1.91 1.91 0 0 1 1.268-.438Zm18.941 0c.244 0 .602.097 1.073.308l1.87.895-.049-3.886c.147-.114.374-.244.667-.358a2.67 2.67 0 0 1 .976-.179c.439 0 .829.114 1.138.342.309.227.471.585.471 1.089 0 .179-.016.585-.065 1.22a61.444 61.444 0 0 1-.162 1.853l3.251-1.691c.325.146.618.39.895.715.26.326.406.716.406 1.155 0 .439-.13.764-.374.96-.26.194-.585.39-1.008.6l-2.146.976 2.585 3.252a1.96 1.96 0 0 1-.667 1.138c-.357.309-.764.472-1.203.472-.439 0-.796-.147-1.057-.423-.26-.277-.536-.618-.829-1.008l-1.252-1.789-2.146 3.122a.913.913 0 0 1-.374.081h-.341c-.683 0-1.203-.146-1.545-.439a1.42 1.42 0 0 1-.52-1.121c0-.44.227-.927.666-1.431l1.691-1.919-3.479-1.122a3.808 3.808 0 0 1-.179-1.154c0-.504.146-.91.439-1.22a1.91 1.91 0 0 1 1.268-.438Z"/>
  <path fill="#000" d="M107.051 60.863a32.356 32.356 0 0 0-.081 2.52v4.21H95.638v-4.226c0-.846.016-1.675.065-2.52h11.348v.016Z" opacity=".2"/>
  <path fill="#484FA3" d="M45.028 101.068a2.228 2.228 0 1 0-4.337-1.018 2.228 2.228 0 0 0 4.337 1.018ZM225.6 165.766a3.74 3.74 0 1 0-7.384-1.198 3.74 3.74 0 0 0 7.384 1.198ZM206.702 25.272a6.503 6.503 0 0 0 6.503-6.504 6.503 6.503 0 1 0-13.007 0 6.504 6.504 0 0 0 6.504 6.504Z"/>
  <path fill="#F44040" d="M118.839 145.083c-.195 3.919-.52 8.845-1.089 14.145-1.252 11.707-3.642 20.828-8.195 30.177-7.56 15.494-28.534 24.258-29.851 24.518v.016h-.065v-.016c-1.3-.244-22.291-9.007-29.851-24.518a69.55 69.55 0 0 1-.927-1.968c-3.967-8.682-6.113-17.315-7.268-28.209a251.07 251.07 0 0 1-1.09-14.145 11.756 11.756 0 0 1 8.7-11.95c8.47-2.26 19.006-3.593 30.436-3.61h.065c2.992 0 5.934.098 8.796.277 8.032.504 15.397 1.658 21.64 3.333 5.35 1.431 8.959 6.406 8.699 11.95Z"/>
  <path fill="#F44040" d="M111.897 144.742a237.418 237.418 0 0 1-1.057 13.755c-1.187 11.153-3.447 19.478-7.528 27.867-5.057 10.374-18.291 17.69-23.64 20.113-3.496-1.578-10.374-5.268-16.113-10.52-2.764-2.52-5.252-5.398-7.008-8.585a28.938 28.938 0 0 1-.52-.991c-4.097-8.39-6.34-16.714-7.528-27.868a236.553 236.553 0 0 1-1.056-13.755 4.833 4.833 0 0 1 3.56-4.894c8.26-2.195 18.161-3.365 28.648-3.365h.114c3.902 0 7.723.162 11.397.487 6.195.537 12.016 1.512 17.186 2.878a4.827 4.827 0 0 1 3.236 2.927 4.89 4.89 0 0 1 .309 1.951Z"/>
  <path fill="#EA2A2A" d="M111.896 144.742a236.553 236.553 0 0 1-1.056 13.755c-1.187 11.153-3.447 19.478-7.528 27.867-5.057 10.374-18.291 17.69-23.64 20.113-3.496-1.578-10.374-5.268-16.113-10.52-1.902-2.081-3.545-4.357-4.748-6.812-.309-.651-.618-1.301-.91-1.935-3.529-7.756-5.528-15.641-6.618-25.933a236.553 236.553 0 0 1-1.056-13.755 4.833 4.833 0 0 1 3.56-4.894c8.244-2.195 18.161-3.366 28.648-3.366h.114c3.138 0 6.227.114 9.235.309 7.008.488 13.593 1.512 19.364 3.057.163.049.309.098.472.146a5.65 5.65 0 0 1 .276 1.968Z"/>
  <path fill="#fff" d="M78.078 179.438a4.176 4.176 0 0 1-2.96-1.219l-7.852-7.854a4.17 4.17 0 0 1 0-5.918 4.17 4.17 0 0 1 5.918 0l4.894 4.894 10.812-10.812a4.17 4.17 0 0 1 5.918 0 4.17 4.17 0 0 1 0 5.918l-13.771 13.772a4.175 4.175 0 0 1-2.96 1.219Z"/>
  <g opacity=".37">
    <path fill="#fff" d="M91.15 136.97a130.27 130.27 0 0 0-11.397-.488h-.114c-10.487 0-20.405 1.171-28.648 3.366a4.833 4.833 0 0 0-3.56 4.894c.227 4.731.585 9.349 1.056 13.755 1.187 11.153 3.447 19.478 7.528 27.867.163.342.341.667.52.992a40.52 40.52 0 0 1-4.227.228c-1.17 0-2.325-.049-3.463-.147-3.967-8.682-6.114-17.315-7.268-28.209a251.07 251.07 0 0 1-1.09-14.145 11.756 11.756 0 0 1 8.7-11.95c8.47-2.26 19.006-3.593 30.436-3.61h.065c2.991 0 5.934.098 8.796.277 1.105 2.276 2 4.666 2.666 7.17Z" opacity=".37"/>
    <path fill="#fff" d="M92.516 147.359c0 3.447-.44 6.78-1.252 9.967-2.26 8.845-7.447 16.503-14.454 21.901a40.225 40.225 0 0 1-18.925 7.95c-3.529-7.755-5.528-15.641-6.618-25.933a236.56 236.56 0 0 1-1.057-13.755 4.834 4.834 0 0 1 3.561-4.894c8.243-2.195 18.161-3.365 28.648-3.365h.114c3.138 0 6.227.114 9.235.309.488 2.552.748 5.154.748 7.82Z" opacity=".65"/>
  </g>
</svg>
