<svg xmlns="http://www.w3.org/2000/svg" width="293" height="293" fill="none" viewBox="0 0 293 293">
  <g clip-path="url(#a)">
    <path fill="#CC2323" fill-rule="evenodd" d="M55.65 74.85c8.328 2.214 16.758 3.683 24.81 6.345 23.273 7.688 47.283 14.625 70.343 23.038 15.31 5.584 30.644 10.835 45.879 16.493 15.17 5.632 30.291 11.531 45.712 16.684.411.809-.495 1.463-.788 2.022-5.294 10.09-9.851 21.253-14.567 32.104a3963.012 3963.012 0 0 0-14.953 34.825c-4.897 11.568-10.438 22.439-16.09 33.809-2.715 5.456-5.193 10.963-8.23 16.825-1.178 2.271-2.966 5.214-4.779 7.819-2.002 2.882-3.883 6.038-7.367 6.526-1.953.276-4.316-.368-6.702-.883-6.075-1.309-12.3-3.601-17.572-5.491-15.377-5.51-29.939-11.237-44.822-16.912-7.115-2.712-14.167-5.876-21.896-8.845a893.923 893.923 0 0 1-22.074-8.834c-7.164-2.978-14.52-5.911-21.556-9.225-6.705-3.16-13.992-6.705-21.056-9.972-2.944-1.36-7.093-3.03-10.697-4.796-4.198-2.055-8.077-3.563-9.068-7.764-.586-2.485.403-6.609 1.27-9.421 2.58-8.359 6.64-16.092 9.83-23.568 4.51-10.568 9.7-20.733 14.11-30.642C35.02 113.358 44.6 93.782 55.649 74.851Zm229.653 25.396c-.028-.306.107-.471.326-.558 2.38.633 4.984 1.294 6.104 3.074.748 1.179 1.112 3.771 1.241 6.046.145 2.593-.345 5.691-.775 8.674-.819 5.698-2.012 9.706-4.217 14.623-.926 2.07-2.383 5.218-4.002 5.619-1.706.421-5.085-.812-5.485-1.672-.548-1.177 2.122-5.499 2.676-6.804 3.403-8.029 4.726-17.96 4.132-29.002Z" clip-rule="evenodd"/>
    <path fill="#F44040" fill-rule="evenodd" d="M276.018 95.01c2.016.635 8.038.93 9.509 2.884 1.526 2.022 1.504 9.291 1.433 12.687-.192 8.732-1.939 15.208-5.103 21.327-.923 1.784-3.481 7.26-5.863 7.701-1.972.364-4.894-1.581-6.573-1.79 4.544-11.645 8.975-25.789 6.08-42.42.12-.175.306-.288.517-.389Z" clip-rule="evenodd"/>
    <path fill="#CC2323" fill-rule="evenodd" d="M259.909 138.17c1.394-3.303 3.029-6.614 4.089-10.478 2.939-10.704 5.234-24.935 1.977-38.593-.227-.223-.087-.278-.03-.54 2.008.554 7.923 2.352 9.233 4.341 1.618 2.453 2.561 9.249 2.555 13.523-.009 9.337-1.895 17.735-4.711 25.08a38.571 38.571 0 0 1-2.407 5.171c-.965 1.731-1.947 4.042-3.174 4.314-1.35.299-2.988-.548-4.196-1.024-1.364-.539-2.627-1.002-3.336-1.794ZM52.117 23.705c.208-.23.2-.442.074-.642-2.28-.923-4.76-1.96-6.727-1.213-1.304.497-3.152 2.347-4.62 4.088-1.676 1.986-3.147 4.757-4.598 7.396-2.769 5.047-4.223 8.971-5.417 14.224-.504 2.211-1.23 5.606-.18 6.896 1.114 1.361 4.554 2.411 5.394 1.962 1.142-.61 1.605-5.67 1.948-7.047 2.105-8.463 7.016-17.193 14.126-25.664Z" clip-rule="evenodd"/>
    <path fill="#F44040" fill-rule="evenodd" d="M62.685 25.1c-1.994-.704-6.984-4.087-9.336-3.411-2.435.7-6.787 6.524-8.77 9.283-5.091 7.09-7.586 13.319-8.736 20.11-.338 1.98-1.583 7.89.057 9.678 1.359 1.477 4.865 1.677 6.33 2.52 3.366-12.038 8.323-26.008 20.636-37.558.008-.212-.074-.417-.18-.622Z" clip-rule="evenodd"/>
    <path fill="#CC2323" fill-rule="evenodd" d="M49.619 69.278c.873-3.479 1.558-7.107 3.032-10.833 4.083-10.323 10.801-23.073 21.613-32.034.315-.042.236-.172.348-.412-1.938-.764-7.745-2.883-9.988-2.082-2.769.99-7.605 5.856-10.171 9.272-5.604 7.467-9.145 15.315-11.308 22.878a38.277 38.277 0 0 0-1.178 5.58c-.274 1.963-.876 4.399-.057 5.356.898 1.05 2.716 1.356 3.965 1.7 1.413.39 2.7.778 3.744.575Z" clip-rule="evenodd"/>
    <path fill="#F44040" fill-rule="evenodd" d="M72.585 25.35c2.112-1.029 6.08-.662 10.923 1.039 18.494 6.496 52.942 15.953 68.786 20.933 7.852 2.47 15.917 4.82 23.799 7.481 7.496 2.535 15.359 5.421 23.632 7.848 15.849 4.646 32.167 9.443 48.103 14.392 4.256 1.324 19.579 6.673 21.918 11.996 3.725 8.47-.408 21.006-2.095 29.997-.94 4.984-2.071 8.87-3.941 13.168-1.652 3.8-4.752 8.874-8.46 9.465-2.268.362-5.004-.209-7.781-.822-7.145-1.583-183.16-62.34-187.375-63.727-3.958-1.3-10.492-2.854-11.536-6.907-.504-1.943-.164-4.483.53-6.503 2.59-7.475 10.735-32.126 23.497-38.36Z" clip-rule="evenodd"/>
    <path fill="#fff" fill-rule="evenodd" d="M253.752 88.37c1.397 1.502 4.73 2.437 8.061 3.157 1.423.31 3.738.771 4.157-.474.507-1.488-2.04-2.431-2.952-2.766-2.882-1.056-6.584-1.747-8.657-1.537-.419.247-.693 1.065-.609 1.62Zm7.165 6.337c-1.638 2.873 5.165 5.343 5.811 2.673.277-1.156-2.563-3.581-4.354-3.61-.643-.008-1.172.434-1.457.937ZM97.404 89.898c-1.438-1.465-4.795-2.305-8.145-2.931-1.43-.268-3.755-.663-4.14.589-.467 1.506 2.108 2.377 3.023 2.685 2.917.972 6.633 1.56 8.704 1.292.408-.26.66-1.082.558-1.635Zm-7.34-6.131c1.556-2.921-5.313-5.198-5.883-2.513-.246 1.167 2.665 3.508 4.453 3.488.644-.011 1.162-.468 1.43-.975Zm-18.522-3.002c.657-.971-.277-2.395-1.668-3.377-1.117-.786-3.615-1.787-4.07-.282-.208.666.394 1.906 1.528 2.752 1.329.992 3.367 2.161 4.21.907ZM10.66 188.074c2.224-.251 9.457 5.26 7.427 7.601-1.657 1.912-7.928-3.1-8.386-5.698-.12-.672.014-1.122.959-1.903Zm3.213 12.052c1.175-2.769 4.68.133 3.946 1.772-.98 2.209-4.981.666-3.946-1.772Zm7.594-2.372c1.605-2.357 6.908 2.099 5.168 4.052-.733.822-1.487.555-2.75-.07-1.864-.923-3.538-2.338-2.418-3.982Z" clip-rule="evenodd"/>
    <path fill="#D6D7F2" fill-rule="evenodd" d="M209.117 137.729c.271-.043.285.166.504.178 1.005 3.055 1.492 6.918 1.125 10.861-1.112 11.988-11.924 15.007-22.545 17.306-7.389 1.597-14.726 3.579-20.622 6.508-5.664 2.815-11.122 7.142-15.323 12.041-4.39 5.116-7.849 11.446-8.529 19.121-1.238 14.017 5.606 22.558 12.941 28.719-1.739-3.629-3.405-7.006-3.3-12.092.175-8.336 5.11-14.568 10.536-17.896 2.971-1.823 6.51-3.305 10.738-3.5 10.711-.492 19.566 6.758 20.313 16.513.674 8.826-4.028 15.143-9.032 18.943-4.779 3.626-10.185 5.744-18.062 5.377 6.182 5.273 19.445 3.294 29.872 4.694 7.734 1.034 13.883 3.377 18.465 7.665.608.568 1.506 1.317 2.155 2.077.561.655 1.405 1.77.791 2.728-2.218-.16-3.848-1.805-5.357-2.991-1.627-1.281-3.122-2.457-5.173-3.496-3.922-1.979-8.386-2.838-13.984-3.34-5.633-.508-11.434-.283-16.577-.856-4.828-.539-9.358-2.151-12.771-4.502-1.555-1.069-2.881-2.84-4.324-3.816-1.151-.778-2.451-1.146-3.52-1.767-7.068-4.115-12.609-11.343-15.151-20.296-3.226-11.379.589-23.506 6.921-31.347 6.056-7.498 14.055-13.126 23.89-16.771 4.88-1.811 10.519-3.048 16.008-4.237 6.803-1.473 13.855-3.438 17.445-8.438 2.931-4.083 3.035-10.209 2.552-16.879.006-.168.011-.338.014-.507Zm-52.085 77.472c-1.972 5.719-.466 11.606 1.873 15.616 1.128 1.934 2.538 4.185 4.467 5.173 2.101 1.081 6.348 1.332 8.608 1.196 9.29-.565 20.905-9.012 20.086-21.25-.523-7.797-7.855-14.502-17.487-13.914-8.624.527-15.08 6.034-17.547 13.179Z" clip-rule="evenodd"/>
    <path fill="#D6D7F2" fill-rule="evenodd" d="M169.548 240.172c9.648 2.935 22.129 2.283 31.898 4.737 7.236 1.813 12.973 5.045 18.095 9.183 1.52 1.228 3.711 2.978 3.276 5.319-1.476.454-2.859-.56-3.867-1.267-3.106-2.175-5.822-4.894-9.506-6.804-4.713-2.437-10.473-3.87-17.005-4.76-7.058-.957-13.979-.747-19.935-2.109-4.823-1.105-8.052-2.633-11.41-4.983-.981-.683-1.878-1.625-2.999-2.264-.825-.468-1.846-.697-2.69-1.071-2.385-1.065-4.559-2.403-6.857-3.869-8.306-5.302-16.098-13.457-14.822-27.911.929-10.541 7.614-18.134 14.693-22.381 7.808-4.683 17.791-6.624 29.105-7.346 11.609-.741 22.534-1.389 30.432-5.964 7.731-4.479 11.793-12.041 13.368-23.596.693.959.588 3.27.397 5.259-.594 6.008-3.886 12.409-7.277 15.932-3.897 4.046-9.008 6.636-14.734 8.157-11.996 3.183-27.311 1.774-39.901 5.426-11.714 3.398-21.006 10.379-23.005 23.054-1.706 10.824 3.048 19.324 9.312 24.239 1.063.833 2.158 1.663 3.333 2.439 1.191.788 2.547 1.522 3.845 2.283.145-.027.161.07.17.172.022.021.153-.021.167.003-2.435-4.141-4.256-7.931-4.108-13.97.194-8.071 3.987-14.572 9.037-19.112 4.982-4.48 11.347-8.057 19.637-7.886 11.823.249 21.305 8.707 21.929 19.933.573 10.152-4.395 18.15-9.621 22.828-5.141 4.597-11.758 6.694-20.957 6.329Zm-2.139-43.389c-6.968 3.521-12.612 9.021-14.261 17.819-.948 5.083-.017 9.787 1.588 13.071 1.14 2.325 3.733 6.306 5.943 7.406 1.726.861 4.054 1.104 6.064 1.481 2.325.439 4.632.774 7.099.657 7.42-.349 15.129-4.591 19.021-10.777 3.979-6.323 6.039-15.977 1.673-23.331-3.141-5.288-9.89-9.375-18.78-8.692-3.278.253-5.746 1.054-8.347 2.366Z" clip-rule="evenodd"/>
    <path fill="#D6D7F2" fill-rule="evenodd" d="M221.499 254.741a1.449 1.449 0 0 0-2.043-.12l-1.896 1.687a1.45 1.45 0 0 0-.115 2.049l7.91 8.887a1.454 1.454 0 0 0 2.048.122l1.896-1.692a1.457 1.457 0 0 0 .118-2.049l-7.918-8.884Z" clip-rule="evenodd"/>
    <path fill="#D6D7F2" fill-rule="evenodd" d="M227.625 264.673a.834.834 0 0 0-1.178-.089.823.823 0 0 0-.087 1.177l3.565 4.162a.837.837 0 0 0 1.181.084.83.83 0 0 0 .093-1.176l-3.574-4.158Z" clip-rule="evenodd"/>
    <path fill="#fff" fill-rule="evenodd" d="M209.859 126.562c.94 4.793 1.876 9.585 2.744 14.448-1.35.439-2.662.914-4.092 1.27-1.596-5.557-5.349-16.149-4.398-24.476.385-3.362 2.492-7.567 6.906-6.288 4.054 1.175 6.431 9.337 2.948 12.929-1.107 1.14-2.484 1.45-4.108 2.117Z" clip-rule="evenodd"/>
    <path fill="#7678C7" fill-rule="evenodd" d="M209.394 123.488c-.798-.829-1.865-5.151-.184-5.423 1.115-.182 1.356 1.657 1.561 2.705.156.802.904 2.545-.17 3.086-.578.29-.991-.142-1.207-.368Zm2.645-9.241c1.145.445 1.137 2.435.094 2.712-1.307.341-2.087-3.487-.094-2.712Z" clip-rule="evenodd"/>
    <path fill="#fff" fill-rule="evenodd" d="M225.327 135.895c-.652 4.839-1.304 9.68-2.049 14.565-1.421-.022-2.812.006-4.283-.116.276-5.776.132-17.009 3.711-24.586 1.446-3.062 4.793-6.366 8.561-3.737 3.462 2.417 3.087 10.911-1.369 13.193-1.416.724-2.818.57-4.571.681Z" clip-rule="evenodd"/>
    <path fill="#7678C7" fill-rule="evenodd" d="M225.875 132.837c-.491-1.041-.112-5.478 1.572-5.196 1.115.188.747 2.006.608 3.065-.113.81.035 2.7-1.154 2.864-.643.091-.889-.449-1.026-.733Zm5.48-7.9c.94.791.29 2.671-.788 2.596-1.343-.096-.852-3.971.788-2.596Zm-218.279-7.083c4.492-3.771 12.702-6.569 17.982-8.777 12.423-5.203 22.33-10.565 35.245-14.309 5.3-1.533 12.352-2.463 15.94.614 2.264 1.943 4.225 5.992 5.723 9.371 3.405 7.665 7.803 20.34 10.374 27.211 4.793 12.793 9.46 23.777 14.22 36.552 4.251 11.431 8.384 23.54 13.124 36.315 2.095 5.644 4.451 12.113 6.097 18.153 1.547 5.678 3.817 13.274 1.257 16.915-1.778 2.528-5.782 4.286-8.792 5.662-3.615 1.651-6.389 2.294-9.043 3.336-6.909 2.713-11.612 4.884-18.166 7.036-5.151 1.69-11.324 3.522-17.774 5.23-5.8 1.536-12.694 3.305-17.26.238-4.127-2.775-7.699-11.071-10.035-16.55-7.309-17.105-12.253-34.107-19.047-51.78-5.015-13.025-9.129-23.894-13.302-34.654-2.027-5.211-4.338-11.01-6.475-17.284-3.012-8.856-7.819-17.303-.509-22.992.14-.107.312-.176.441-.287Z" clip-rule="evenodd"/>
    <path fill="#fff" fill-rule="evenodd" d="M16.598 119.942c.06-.056.08-.364.296-.505 9.8-6.307 17.96-8.278 28.92-13.027 9.573-4.15 23.187-12.63 30.935-7.487 4.176 2.77 7.457 10.379 9.895 16.323 7.416 18.13 13.403 32.801 20.288 51.293 5.992 16.087 13.116 34.216 19.352 51.28 2.473 6.774 4.097 11.465-.035 15.88-1.778 1.894-4.802 2.667-7.458 3.868-12.579 5.696-24.323 9.529-37.732 15.284-5.382 2.314-10.982 4.706-14.838 3.034-4.33-1.886-8.222-9.359-10.706-15.183-5.234-12.251-7.658-20.747-12.96-33.63-9.487-23.076-19.434-45.251-26.995-67.5-2.605-7.674-5.07-14.387.597-19.348.131-.115.31-.171.44-.282Z" clip-rule="evenodd"/>
    <path fill="#D6D7F2" d="M66.22 255.884c3.857 1.673 9.457-.72 14.839-3.033 13.409-5.755 25.153-9.588 37.732-15.284 2.656-1.201 5.68-1.973 7.458-3.868 3.913-4.176 2.662-8.608.418-14.815-18.231 6.906-46.988 17.254-69.41 25.625 2.394 4.9 5.538 9.883 8.964 11.375ZM76.749 98.922C69 93.78 55.387 102.26 45.815 106.41c-10.96 4.749-19.122 6.719-28.921 13.026-.216.141-.235.45-.296.506-.132.111-.31.167-.441.282-3.55 3.108-3.908 6.906-3.037 11.197 22.814-9.396 45.362-17.553 68.24-27.223-1.393-2.256-2.924-4.161-4.611-5.276Z"/>
    <path fill="#fff" fill-rule="evenodd" d="M54.173 109.731c-.156 2.756-14.118 8.588-16.799 7.707-1.331-.433-1.222-2.104-.537-2.76 2.813-2.697 17.509-7.982 17.336-4.947Z" clip-rule="evenodd"/>
    <path fill="#7678C7" fill-rule="evenodd" d="M55.123 225.489c20.905-10.464 40.572-16.577 60.446-23.419.559 1.026.781 1.96 1.143 2.931-20.119 7.703-40.09 14.894-60.5 23.612-.467-.934-.763-1.819-1.202-2.74-.196-.153-.048-.676.113-.384Zm2.207 5.419c20.394-9.027 40.318-16.426 60.182-23.595.219.756.46 1.519.805 2.31-19.862 7.636-39.931 16.02-59.915 24.095-.526-.984-.899-1.926-1.071-2.81Zm2.329 5.355c19.924-8.387 40.078-17.318 59.715-24.146.227.863.68 1.79.816 2.628-20.138 9.239-39.215 14.743-59.565 24.711-.49-.939-.703-1.798-1.005-2.685-.123-.21-.085-.37.039-.508Z" clip-rule="evenodd"/>
    <path fill="#F44040" fill-rule="evenodd" d="M94.816 160.963c-.346.143-.685.281-1.033.421 6.688 16.272 8.622 20.854 14.899 37.016 1.219-.534 2.388-.91 3.552-1.246-5.965-16.368-7.389-21.094-13.89-37.613-1.181.475-2.356.951-3.528 1.422Zm-11.059-2.236c6.225 15.987 9.479 26.215 17.048 42.585 1.293-.216 2.714-.91 4.042-1.266-5.666-16.142-9.555-26.817-16.454-43.235a682.638 682.638 0 0 0-4.636 1.916Zm-10.399-2.428c6.367 16.41 12.491 32.746 18.834 49.144 1.493-.565 2.928-.919 4.509-1.785-5.768-16.577-11.22-33.063-17.58-49.807a688.83 688.83 0 0 0-5.763 2.448Zm.6 24.929c6.622 16.135 4.902 10.681 11.119 26.699 1.222-.533 2.394-.907 3.56-1.244-5.934-16.269-3.724-11.014-10.182-27.436a547.554 547.554 0 0 0-4.497 1.981Zm-13.343-13.859c6.118 15.735 9.139 27.357 16.59 43.472 1.294-.217 2.715-.91 4.046-1.266-5.609-15.959-9.246-28.084-16.065-44.314-1.531.697-3.06 1.397-4.571 2.108Zm-10.602-.374c6.214 16.042 12.21 32.014 18.41 48.05 1.492-.56 2.927-.911 4.505-1.775-5.672-16.303-11.034-32.522-17.26-48.979a542.06 542.06 0 0 0-5.655 2.704Zm-1.767 16.835c6.417 15.646 7.03 18.165 13.067 33.705 1.221-.535 2.39-.908 3.552-1.244-5.784-15.866-5.954-18.657-12.234-34.659-1.47.726-2.925 1.457-4.385 2.198Zm-13.548-9.017c5.86 15.098 11.582 30.167 18.741 45.633 1.29-.217 2.712-.908 4.043-1.264-5.42-15.436-11.692-31.063-18.265-46.752a370.692 370.692 0 0 0-4.519 2.383Z" clip-rule="evenodd"/>
    <path fill="#EFF973" fill-rule="evenodd" d="M19.191 137.003c3.843-2.506 10.293-4.486 15.841-6.783 10.67-4.422 19.949-8.819 31.244-13.282 3.505-1.387 12.398-5.272 14.857-3.973 1.846.976 3.112 5.575 4.007 7.678 2.607 6.116 4.486 10.767 6.989 16.642 1.161 2.729 2.61 5.468 2.048 8.006-4.28 3.172-10.026 4.275-15.545 6.284-10.76 3.916-20.1 8.127-31.605 13.202-3.801 1.681-12.485 6.902-15.449 4.976-1.838-1.191-3.114-5.305-4.152-7.894-2.262-5.651-4.34-10.575-6.2-15.904-.94-2.687-1.778-5.848-2.268-7.872a1.29 1.29 0 0 1 .233-1.08Z" clip-rule="evenodd"/>
    <path fill="#fff" d="M35.7 157.167c1.397-1.376 3.793-2.2 3.764-3.81-.036-2.286-2.451-3.56-3.676-5.125-2.653-3.395-2.355-8.674 1.216-10.417 3.733-1.833 8.024 1.583 8.589 5.98.293 2.264-.638 4.842.734 6.654.813 1.062 2.372.842 3.941.706 1.345-.12 2.424-.075 3.339.273a13.116 13.116 0 0 0-.178-8.979c-2.618-6.783-10.24-10.163-17.027-7.545-6.78 2.615-10.163 10.24-7.545 17.025a13.102 13.102 0 0 0 5.77 6.7c.24-.506.594-.989 1.073-1.462Z"/>
    <path fill="#7678C7" d="M45.883 159.477a13.132 13.132 0 0 0 7.723-8.049c-.915-.348-1.994-.393-3.338-.272-1.57.135-3.128.356-3.942-.707-1.372-1.812-.44-4.39-.734-6.654-.564-4.396-4.855-7.812-8.588-5.98-3.572 1.743-3.87 7.022-1.216 10.417 1.224 1.565 3.64 2.839 3.675 5.126.03 1.609-2.366 2.433-3.763 3.809-.479.473-.833.956-1.074 1.463 3.32 1.885 7.42 2.328 11.257.847Z"/>
    <path fill="#fff" fill-rule="evenodd" d="M86.45 134.249c-.9-1.888-2.562-5.838-2.715-6.176-5.42 2.084-25.136 10.603-25.136 10.603-.307-.529 1.205 4.026 2.09 5.735 0 .001 5.66-2.18 25.76-10.162Zm-5.922-15.823c-19.875 8.48-6.258 2.183-26.1 10.86 0 0 1.526 3.902 2.46 5.622 0 0 6.162-2.836 25.996-10.767a256.237 256.237 0 0 1-2.356-5.715Z" clip-rule="evenodd"/>
    <path fill="#EFF973" fill-rule="evenodd" d="M173.059 116.603c-15.589-1.742-32.774-4.625-50.04-4.793-.558-.297.414-1.261.945-1.408 3.254-.895 4.853-2.525 6.272-5.186 2.552-4.794 1.112-14.371 4.187-18.547 1.822-2.472 6.757-3.268 11.251-3.413 7.373-.233 17.331 2.084 21.384 5.358 1.827 1.479 2.955 3.418 3.029 6.386.129 5.419-2.166 12.216-.906 16.865.378 1.391 1.98 2.929 3.878 4.738Z" clip-rule="evenodd"/>
    <path fill="#fff" fill-rule="evenodd" d="M145.587 85.948c-.718 1.005-2.09.952-3.095 1.338-1.002.382-2.046.893-2.925 1.524-1.063.757-1.67 1.867-2.947 2.239-.282-.258-.553-.526-.874-.745-.12-1.608 1.471-2.997 2.996-3.858 1.416-.798 3.788-1.702 5.083-1.631.661.033 1.794-.065 1.762 1.133Zm-10.107 7.04c.121.006.239.01.359.013.657.02.666.65 1.046.932-.635 3.05-.975 6.89-1.769 10.362-.254 1.108-.301 2.538-1.509 2.285-1.588-.331-.476-4.691-.147-6.65.558-3.31.783-5.345 2.02-6.942Z" clip-rule="evenodd"/>
    <path fill="#EFF973" fill-rule="evenodd" d="M166.012 174.216c-15.586-1.776-32.982-2.794-49.853-6.475-.608.166.121 1.322.606 1.582 2.974 1.6 4.173 3.545 4.962 6.455 1.422 5.241-2.119 14.257-.046 19.016 1.224 2.813 5.852 4.687 10.205 5.829 7.134 1.87 17.36 1.832 22.038-.46 2.115-1.034 3.643-2.673 4.374-5.549 1.336-5.254.613-12.393 2.878-16.645.676-1.272 2.582-2.414 4.836-3.753Z" clip-rule="evenodd"/>
    <path fill="#fff" fill-rule="evenodd" d="M132.4 197.978c-.477-1.139-1.824-1.392-2.722-1.992-.885-.597-1.794-1.326-2.511-2.135-.866-.979-1.209-2.195-2.37-2.843-.334.191-.657.39-1.021.534-.477 1.541.77 3.248 2.065 4.426 1.202 1.094 3.311 2.503 4.59 2.725.651.114 1.733.463 1.969-.715Zm-8.285-9.112c.118.021.233.046.353.068.646.126.794-.486 1.227-.675.063-3.117.586-6.936.583-10.497 0-1.137.271-2.541-.964-2.566-1.619-.028-1.507 4.47-1.625 6.453-.19 3.351-.423 5.387.426 7.217Z" clip-rule="evenodd"/>
    <path fill="#7678C7" d="m169.887 115.325-43.792-4.824a6.344 6.344 0 0 0-7.005 5.615l-5.149 46.715a6.357 6.357 0 0 0 5.62 7.007l43.789 4.823a6.35 6.35 0 0 0 7.009-5.616l5.146-46.713a6.35 6.35 0 0 0-5.618-7.007Zm1.186 9.922-4.406 39.987a5.432 5.432 0 0 1-5.998 4.808l-37.485-4.13a5.438 5.438 0 0 1-4.812-5.997l4.406-39.988a5.438 5.438 0 0 1 6.001-4.809l37.485 4.13a5.438 5.438 0 0 1 4.809 5.999Z"/>
    <path fill="#fff" d="m166.264 119.248-37.485-4.13a5.439 5.439 0 0 0-6.001 4.809l-4.407 39.989a5.438 5.438 0 0 0 4.812 5.996l37.485 4.13a5.43 5.43 0 0 0 5.998-4.807l4.407-39.987a5.438 5.438 0 0 0-4.809-6Z"/>
    <path fill="#7678C7" d="M146.332 132.439c-.181 5.496-4.779 9.811-10.276 9.634-5.497-.178-9.807-4.776-9.632-10.273.175-5.495 4.776-9.81 10.273-9.632 5.496.175 9.81 4.775 9.635 10.271Z"/>
    <path fill="#fff" d="M134.092 135.339c.789-.136 1.443-1.104 1.189-2.573l-3.06.523c.261 1.524 1.082 2.185 1.871 2.05Zm1.408-5.029c-.4-2.328-1.553-3.452-2.769-3.245-1.219.208-2.038 1.672-1.638 4.001.088.515.222.998.39 1.44l4.127-.706a7.958 7.958 0 0 0-.11-1.49Zm1.627 7.202c.712.367 1.813-.012 2.498-1.34l-2.764-1.42c-.706 1.373-.449 2.398.266 2.76Zm4.146-3.171c1.079-2.101.835-3.695-.263-4.257-1.098-.567-2.634.114-3.711 2.213a7.82 7.82 0 0 0-.556 1.386l3.722 1.916c.293-.37.57-.793.808-1.258Z"/>
    <path fill="#7678C7" fill-rule="evenodd" d="M154.871 150.267c.035.001.069-.119.197-.096 5.809 1.089 2.2 10.132-2.352 7.731-2.906-1.53-.811-7.764 2.155-7.635Zm.758 2.072c-1.95-.816-2.996 2.28-1.808 3.319 1.43.244 2.808-2.16 1.808-3.319Z" clip-rule="evenodd"/>
    <path fill="#7678C7" fill-rule="evenodd" d="M144.288 156.131c-.627.048-1.254.101-1.966-.024-.948.697-1.816 1.603-2.914 1.293-2.005-.571-1.821-3.607-.468-5.754.4-.151.547-.181.931.159 1.084-3.966 4.875-.119 3.264 2.446 1.46.418.901-2.29 1.901-3.121.463-.051.745-.47 1.375-.177 1.144-1.117 2.823-.912 3.688-.202 2.643 2.155-.61 8.713-4.067 7.466-1.103-.398-1.243-1.174-1.744-2.086Zm3.914-2.751c-.244.34-.646.346-1.181.082-.477 1.074-1.361 1.886-.227 2.553 1.087-.046 2.977-2.883 1.471-3.767-.559.287.35.55-.063 1.132Zm-8.715 1.908c.512.142.786-.217 1.036-.626a8.054 8.054 0 0 1-.704-2.711c-.381 1.245-.542 2.379-.332 3.337Zm-2.036-6.169c-1.128.514-2.743.022-3.887.498-.584.905-.997 2.147-1.564 3.075.504.34.939.081 1.668.412 3.903 1.787.605 10.403-4.415 7.512-.759-.534-.868-2.695.477-2.795.961.145.596.933 1.213 1.244 1.879 1.047 3.456-3.498 1.821-4.3-1.383-.68-2.189 1.361-3.306.991-1.575-.523-.312-2.816.545-4.415.597-1.118 1.652-3.095 2.84-3.451.896-.268 3.128.234 4.42.051a.31.31 0 0 1 .073.002c.599.082.665.926.115 1.176Z" clip-rule="evenodd"/>
    <path fill="#D6D7F2" fill-rule="evenodd" d="M150.212 136.268c.825-.504 2.284-.586 3.963-.519 1.6.066 4.27.323 6.502.664 2.147.331 4.88.719 5.302 1.754.356.863-.126 2.771-.811 3.255-.734.521-2.476.315-3.963.155-2.695-.286-5.001-.497-7.948-.888-1.345-.178-3.064-.226-3.495-.928-.728-1.183.19-2.622.45-3.493Z" clip-rule="evenodd"/>
    <path fill="#F44040" fill-rule="evenodd" d="M159.754 141.111c-1.599-.529-1.394-2.78-.635-3.843 1.454-2.04 5.159.387 3.514 2.855-.499.745-1.477 1.452-2.879.988Z" clip-rule="evenodd"/>
    <path fill="#D6D7F2" fill-rule="evenodd" d="M151.237 128.038c.824-.504 2.284-.586 3.963-.519 1.596.066 4.269.321 6.499.663 2.15.33 4.883.719 5.308 1.754.356.867-.129 2.773-.811 3.255-.74.523-2.476.314-3.966.155-2.695-.285-5.001-.498-7.948-.888-1.342-.178-3.064-.227-3.495-.928-.725-1.183.192-2.622.45-3.492Z" clip-rule="evenodd"/>
    <path fill="#7678C7" fill-rule="evenodd" d="M154.367 132.267c-1.602-.533-1.394-2.781-.635-3.842 1.451-2.041 5.157.387 3.514 2.853-.499.745-1.477 1.453-2.879.989Z" clip-rule="evenodd"/>
  </g>
  <defs>
    <clipPath id="a">
      <path fill="#fff" d="M0 0h293v293H0z"/>
    </clipPath>
  </defs>
</svg>
