<svg xmlns="http://www.w3.org/2000/svg" width="293" height="293" fill="none" viewBox="0 0 293 293">
  <path fill="#F44040" fill-rule="evenodd" d="M242.6 210.34c.098.087 1.383 1.207 1.864 2.216 1.033 2.173-.263 7.013-.849 9.322-1.532 6.028-4.096 12.246-6.152 18.126-.972 2.779-2.073 6.936-4.822 8.848-3.849 2.675-10.406-.261-14.386-2.252-1.517-.757-3.459-1.684-4.431-3.409-1.872-3.317 1.724-9.189-1.128-12.994-1.208-1.614-3.38-2.193-5.219-2.756-8.76-2.679-17.068-5.37-26.279-7.894-3.539-.969-7.648-2.62-10.593-1.189-4.777 2.321-4.304 7.368-8.286 9.501-2.307 1.234-5.768-.212-8.291-1.105-2.472-.871-6.422-2.101-7.983-4.449-1.433-2.151.053-7.352.628-9.583.877-3.396 1.97-6.417 2.911-9.26 1.576-4.731 2.805-9.084 5.411-13.975.844-1.581 1.819-3.381 3.417-4.152 1.614-.779 2.542-.12 4.232.26 2.83.631 5.154 1.273 8.294 2.428 1.229.453 2.852.84 4.034 2.408 1.508 2.002.318 4.88.226 6.888-.1 2.146.207 5.137 1.911 7.042 1.207 1.346 3.268 1.744 5.023 2.256 10.479 3.066 19.557 6.077 30.03 9.436 1.956.625 3.537 1.118 5.065.452 2.339-1.018 3.333-3.273 4.604-5.131 1.263-1.842 2.545-4.162 4.492-5.26 2.112-1.192 5.436.094 8.07.843 3.092.876 5.311 1.338 7.875 2.994.134.085.212.283.332.389Z" clip-rule="evenodd"/>
  <path fill="#F75E5E" fill-rule="evenodd" d="M169.027 217.199c-4.797-1.623-10.367-3.01-15.116-5.155 1.562-4.52 2.534-9.091 4.16-13.606 5.031 1.253 10.788 1.988 15.763 3.91a202.533 202.533 0 0 1-4.807 14.851Z" clip-rule="evenodd"/>
  <path fill="#CC2323" fill-rule="evenodd" d="M175.323 196.209c-.156 9.679-1.863 17.142-7.972 24.976 2.48-8.214 5.629-16.75 7.972-24.976Z" clip-rule="evenodd"/>
  <path fill="#CC2323" d="M150.296 219.674a35.977 35.977 0 0 0 2.629-4.828c2.947-6.457 4.914-13.243 6.676-19.886.766-2.88 2.207-6.965.911-9.927-.651-.118-1.288-.09-2.1.302-1.598.771-2.573 2.571-3.417 4.152-2.606 4.891-3.835 9.243-5.411 13.975-.941 2.842-2.034 5.864-2.911 9.26-.575 2.231-2.061 7.432-.628 9.582.22.337.497.646.807.939 1.679-.526 2.584-2.253 3.444-3.569Z"/>
  <path fill="#F75E5E" fill-rule="evenodd" d="M214.154 232.69c4.847 1.472 12.811 3.753 17.929 4.774 1.405-4.568 3.503-10.766 4.855-15.369-4.819-1.908-12.663-4.042-17.828-5.374-1.841 4.921-3.473 10.84-4.956 15.969Z" clip-rule="evenodd"/>
  <path fill="#CC2323" fill-rule="evenodd" d="M221.579 211.752c-5.338 7.916-7.21 13.553-7.95 25.13 2.849-8.095 4.983-17.103 7.95-25.13Z" clip-rule="evenodd"/>
  <path fill="#CC2323" d="M237.463 240.004c2.057-5.881 4.621-12.098 6.152-18.126.587-2.309 1.883-7.149.849-9.322-.156-.328-.397-.664-.654-.975-2.234 1.633-4.646 5.635-5.084 6.415-3.908 6.948-6.221 14.303-7.531 21.256-.294 1.56-.657 3.12-.769 4.39-.145 1.7-.179 4.281 1.146 5.773.374-.154.734-.33 1.07-.563 2.749-1.912 3.849-6.069 4.821-8.848Z"/>
  <path fill="#fff" fill-rule="evenodd" d="M152.047 214.989c-.011-1.345 1.165-3.291 2.434-5.133.547-.79 1.449-2.05 2.217-1.646.919.48.123 2.076-.159 2.643-.914 1.805-2.374 3.798-3.467 4.634-.309.07-.815-.196-1.025-.498Zm3.545-8.086c-2.091-.632.054-4.872 1.579-3.892.659.428.397 2.861-.45 3.683-.304.29-.762.318-1.129.209Zm3.168-7.564c-.765-.146-.994-1.24-.804-2.34.156-.883.855-2.504 1.771-2.016.408.213.71 1.065.573 1.981-.157 1.077-.562 2.564-1.54 2.375Zm80.072 14.931c3.355-.873 1.296 7.32-1.248 6.844-2.978-.562-.576-5.582.935-6.735.095-.073.196-.078.313-.109Zm-3.897 9.423c2.794-.33 1.45 6.665-1.249 5.594-2.05-.81-.678-5.367 1.249-5.594Z" clip-rule="evenodd"/>
  <path fill="#7678C7" fill-rule="evenodd" d="M195.889 42.542c-4.229.903-8.69 1.571-13.017 2.376-2.087-9.748-7.576-17.422-15.929-22.062-17.357-9.643-46.962-5.716-62.863 2.206-4.071 2.027-7.999 4.36-11.306 7.637-3.771 3.738-7.204 8.636-6.509 15.785.489 4.993 3.378 8.866 5.654 11.88-2.307.244-4.503.89-6.852 1.356-.796.16-1.956.457-2.397.34-1.294-.34-2.615-4.226-3.085-5.431-.575-1.476-1.55-4.396-1.712-6.619-.626-8.523 2.595-14.453 6.508-19.178 4.012-4.843 9.027-8.192 14.387-11.2C109.923 13.37 123.907 9.314 139.194 8.6c14.982-.702 29.989.661 39.741 5.94 9.728 5.265 14.929 14.515 16.954 28.002Z" clip-rule="evenodd"/>
  <path fill="#000" fill-rule="evenodd" d="M195.889 42.542c-4.229.903-8.69 1.571-13.017 2.376-2.087-9.748-7.576-17.422-15.929-22.062-17.357-9.643-46.962-5.716-62.863 2.206-4.071 2.027-7.999 4.36-11.306 7.637-3.771 3.738-7.204 8.636-6.509 15.785.489 4.993 3.378 8.866 5.654 11.88-2.307.244-4.503.89-6.852 1.356-.796.16-1.956.457-2.397.34-1.294-.34-2.615-4.226-3.085-5.431-.575-1.476-1.55-4.396-1.712-6.619-.626-8.523 2.595-14.453 6.508-19.178 4.012-4.843 9.027-8.192 14.387-11.2C109.923 13.37 123.907 9.314 139.194 8.6c14.982-.702 29.989.661 39.741 5.94 9.728 5.265 14.929 14.515 16.954 28.002Z" clip-rule="evenodd" opacity=".25"/>
  <path fill="#F44040" fill-rule="evenodd" d="M241.796 149.112c-63.126 9.07-125.889 18.511-188.76 27.831-6.962-5.259-12.543-12.547-17.3-20.535-4.719-7.927-8.359-17.07-10.278-27.324-2.157-11.53-1.615-23.741 1.028-33.943 1.276-4.926 3.065-9.517 4.967-13.916 1.914-4.42 3.682-8.802 6.51-12.22a7067.282 7067.282 0 0 1 30.586-5.376s29.976-1.172 44.969-3.754c18.539-3.193 55.504-13.696 55.504-13.696 18.836-3.364 37.582-6.817 56.161-10.438.458.162-.458.786-.858 1.188-6.23 6.221-11.091 14.78-13.876 24.778-3 10.77-3.008 24.806-.857 37.17 1.961 11.265 5.769 21.834 10.447 30.716 4.459 8.462 10.971 14.738 20.042 18.671.539.232 1.383.186 1.715.848Z" clip-rule="evenodd"/>
  <path fill="#fff" d="M45.024 97.568c1.212-11.796 3.606-22.463 5.972-30.87l-3.886.687c-2.257 8.284-4.466 18.506-5.629 29.725-3.2 30.952 2.724 57.914 17.192 78.998l3.927-.585c-18.23-25.5-19.861-55.751-17.576-77.955Zm151.648-23.823c1.36-13.244 4.215-25.074 6.841-33.869l-3.928.734c-2.528 8.745-5.151 20.085-6.453 32.678-3.271 31.576 2.964 58.999 18.075 80.265 1.323-.194 2.651-.385 3.975-.577-19.102-25.762-20.835-56.655-18.51-79.231Z"/>
  <path fill="#fff" fill-rule="evenodd" d="M70.68 101.251c.067-1.766 2.184-2.183 3.422-2.716 9.646-4.136 21.71-6.526 33.746-8.485 6.917-1.125 13.929-2.21 21.069-3.056 7.414-.876 14.91-1.17 22.609-1.526 1.656-.077 8.433-.454 8.565 1.526.072 1.116-3.35 1.956-4.453 2.206-12.686 2.901-25.76 4.768-39.052 6.79-13.32 2.025-26.48 4.218-40.428 5.601-1.707.169-3.956 1.016-5.478-.34Z" clip-rule="evenodd"/>
  <path fill="#EFF973" fill-rule="evenodd" d="M144.332 109.567c-.62-1.048.875-5.805.688-8.316-.163-2.114-2.707-4.584-2.744-7.468-.033-2.794 1.57-5.568 4.112-5.938 3.917-.572 6.079 3.292 5.138 7.127-.433 1.767-1.673 3.34-1.595 5.191.053 1.154 3.813 6.746 3.139 8.046-.774 1.486-7.702 3.105-8.738 1.358Zm2.226-12.727c2.688.018 2.998-7.008-.511-5.941-2.235.678-1.967 5.92.511 5.941Z" clip-rule="evenodd"/>
  <path fill="#EFF973" d="M72.392 68.243c1.775 1.477 4.277 1.941 5.996 2.377 14.638 3.706 32.625.304 44.875-2.545 9.401-2.188 17.789-4.485 26.036-7.637 5.945-2.273 11.892-4.802 16.616-8.486 1.506-1.175 3.632-2.976 3.255-5.262a2.339 2.339 0 0 0-.148-.512C136.416 52 103.541 57.556 70.798 63.239c-.638 1.673.212 3.854 1.594 5.005Z"/>
  <path fill="#000" d="M230.32 142.355c-.517.106-1.028.208-1.542.308-5.791 1.114-11.518 2.425-17.3 3.563a608.53 608.53 0 0 1-35.8 5.94c-24.393 3.305-51.189 5.577-78.962 3.732-13.052-.866-25.704-2.321-35.63-6.108-9.986-3.813-18.054-9.908-22.44-19.348-4.187-9.017-6.358-22.622-5.478-35.64.696-10.322 3.383-18.704 7.007-26.19l-2.212.394c-2.828 3.417-4.596 7.798-6.51 12.219-1.902 4.4-3.69 8.99-4.967 13.917-2.642 10.201-3.185 22.412-1.028 33.942 1.92 10.254 5.56 19.396 10.277 27.324 4.758 7.988 10.34 15.276 17.3 20.535 61.389-9.1 122.671-18.311 184.297-27.182a54.9 54.9 0 0 0 1.723-.82c.375-.188.793-.392 1.232-.606a1.924 1.924 0 0 1-.206-.072c-3.662-1.588-6.9-3.566-9.761-5.908Z" opacity=".16"/>
  <path fill="#7678C7" fill-rule="evenodd" d="M136.451.27c-.019.002.067-.163.174-.17 19.476-.91 35.084 4.34 41.109 17.313 6.766 14.565.808 35.93-2.4 49.726-1.96 8.445-3.662 14.968-5.307 23.76-1.512 8.058-2.855 17.324-1.545 26.645 1.735 12.326 7.092 22.214 12.333 31.227a110.598 110.598 0 0 1 2.57 4.751c.698 1.37 1.956 3.626 1.199 5.264-1.462 3.159-5.836 1.36-8.222 0-4.629-2.64-7.638-6.581-10.448-11.032-5.62-8.906-9.095-19.513-9.933-32.925-.405-6.457.351-13.017 1.198-19.687 1.52-12.002 4.109-24.37 6.336-36.49 1.098-5.961 2.439-12.09 2.914-18.497 1.439-19.359-9.456-30.162-28.603-29.871-12.074.184-21.781 3.082-30.835 6.617-8.741 3.415-16.734 8.12-22.609 14.767-5.928 6.703-9.247 15.283-11.305 25.966-1.933 10.02-2.933 22.503-2.056 34.452.43 5.85 1.058 11.337 2.226 16.463 3.445 15.114 9.244 27.828 16.616 39.205 2.204 3.4 4.746 6.336 8.051 10.691 1.025 1.353 2.578 3.258 3.939 5.431.872 1.39 2.875 4.946 1.539 6.958-1.548 2.342-6.858.415-8.562-.509-6.68-3.619-11.705-12.307-15.415-19.178-1.005-1.861-1.785-3.945-2.74-5.94-10.069-20.95-16.175-48.039-13.706-80.105 2.836-36.804 24.486-55.718 57.897-62.794 2.31-.49 4.911-1.004 7.366-1.359 2.808-.407 5.649-.541 8.219-.678Z" clip-rule="evenodd"/>
  <path fill="#EFF973" fill-rule="evenodd" d="M189.311 53.405c-3.743.642-.966-8.715 1.787-6.203 1.434 1.306-.505 4.888-1.787 6.203Zm-5.051 4.25c.503-.622 1.872-1.629 3.056-.538 1.548 1.422.628 5.527.578 7.222-.067 2.062.752 5.974-1.324 7.06-2.956 1.547-3.229-4.448-3.235-6.513-.003-1.098.097-2.176.142-3.103.076-1.593-.181-2.928.783-4.128ZM65.408 161.201c1.88-.539 5.062.333 8.135 1.371 1.32.441 3.44 1.198 3.168 2.408-.32 1.454-2.863.978-3.774.804-2.877-.552-6.238-1.797-7.833-2.98-.22-.403-.036-1.199.304-1.603Zm14.834-1.639c.078-3.126 6.853-1.808 6.067.667-.343 1.075-3.86 1.65-5.338.8-.525-.306-.74-.923-.729-1.467Zm6.97 4.572c-.09-1.108 1.355-1.842 2.97-2.007 1.299-.131 3.844.211 3.517 1.66-.143.644-1.221 1.387-2.562 1.554-1.57.202-3.808.217-3.925-1.207ZM225.864 35.622c7.967-.908 13.493 5.14 17.13 9.84 2.956 3.823 5.123 7.976 7.023 12.216 3.517 7.847 7.149 19.608 8.735 29.858 2.543 16.414 2.221 38.25-4.109 50.724-2.196 4.323-5.331 8.33-9.249 10.01-3.998 1.709-8.875.944-12.678-1.357-6.595-3.993-11.294-11.14-15.074-19.001-3.556-7.404-6.274-16.698-8.051-25.787-3.947-20.216-3.866-48.097 6.509-60.904 2.08-2.564 5.639-5.128 9.764-5.599Z" clip-rule="evenodd"/>
  <path fill="#7678C7" fill-rule="evenodd" d="M65.026 175.239c6.14 2.879 12.196 6.641 16.842 13.733 9.758 14.874 6.864 30.064.21 40.487-3.766 5.9-10.007 11.659-17.418 15.05-14.893 6.809-28.69 4.923-40.116-1.955-5.83-3.51-11.822-9.286-15.127-17.49-2.88-7.17-3.179-14.557-1.846-20.735 1.363-6.318 4.207-12.049 8.713-17.63-3.364-3.165-6.3-5.626-8.858-9.488-6.744-10.179-9.99-20.277-5.02-28.117 4.562-7.192 15.457-10.592 23.826-12.369 5.034-1.069 9.987-1.909 14.773-2.321 9.33-.813 20.3-.179 25.3 10.126 2.694 5.556 2.649 11.32 2.028 16.17-.65 5.063-2.41 9.503-3.307 14.539Zm-8.57-14.396c.522-3.033 1.521-8.889-1.411-12.626-2.662-3.391-9.135-2.77-12.912-2.394-5.341.536-12.052 1.713-17.501 3.05-3.14.773-6.585 1.789-9.345 3.604-4.744 3.118-4.207 6.097-1.95 11.178 2.701 6.088 7.023 12.827 10.76 16.012 10.7-7.034 20.69-8.093 29.576-7.382 1.086-3.949 2.047-7.189 2.782-11.442Z" clip-rule="evenodd"/>
  <path fill="#000" d="M23.927 179.517c-4.76.743-9.571.922-14.328.57 2.014 2.371 4.237 4.306 6.684 6.611v.003c3.501-2.108 5.81-4.506 7.82-7.036l-.006.003c-.055-.048-.111-.101-.17-.151Zm41.294-12.071a60.774 60.774 0 0 1-11.507 4.883c3.272 1.479 6.717 2.706 11.312 2.907.553-3.112 1.435-5.996 2.184-8.943-.653.396-1.318.782-1.989 1.153Zm12.655 52.619c-2.506 4.331-5.897 8.541-10.616 11.946a60.669 60.669 0 0 1-10.322 7.186c-7.57 4.178-15.722 6.572-23.94 7.335 9.539 3.303 20.278 3.181 31.66-2.024 7.412-3.391 13.653-9.15 17.419-15.051 5.037-7.888 7.911-18.507 4.782-29.652a62.543 62.543 0 0 1-8.983 20.26Z" opacity=".25"/>
  <path fill="#fff" fill-rule="evenodd" d="M61.093 164.111c-3.035-.813 2.897-15.359-.685-20.406-1.319-1.858-3.98-2.575-6.274-3.142-4.668-1.157-9.244-.641-14.342-.053-1.084.126-2.487.386-3.66.465-.95.065-3.198.28-2.964-1.086.355-2.067 10.716-2.885 16.119-3.064 6.029-.201 10.23 1.982 13.065 5.805 3.221 4.339 1.562 22.236-1.26 21.481Zm-50.879-10.194c-2.11-1.001 2.73-6.401 3.889-3.895.51 1.105-2.54 4.537-3.89 3.895Zm-2.246 1.238c.63-.565 1.363-.897 1.98-.314.712.672.36 2.163.352 2.719-.036 2.224.791 5.596 2.224 8.485 1.442 2.914 3.74 5.399 2.283 6.51-1.36 1.041-2.886-.887-4.026-2.632-3.486-5.329-4.855-10.482-3.028-14.457.067-.146.047-.16.215-.311Zm6.084 58.612c-1.944-.577-1.293-6.017-.924-8.619 1.192-8.442 6.08-16.892 15.082-22.698 9.523-6.142 19.186-7.133 26.963-5.748 5.682 1.013 11.666 3.631 16.412 8.622 1.58 1.661 3.43 3.666 4.632 5.797 1.237 2.194 2.67 4.749.871 5.737-1.326.728-3.408-1.267-4.313-2.091-1.506-1.372-2.634-2.545-3.909-3.474-7.73-5.611-17.593-8.284-27.49-6.003-8.024 1.845-15.292 6.423-18.874 11.77-1.83 2.726-3.003 5.613-3.983 8.61-.897 2.73-1.933 8.849-4.467 8.097Zm.448 1.499c1.78.497 1.85 4.304-.262 4.419-1.841.1-1.928-5.028.262-4.419Z" clip-rule="evenodd"/>
  <path fill="#fff" d="M33.852 213.262c1.853-1.672 4.411 3.262 5.364 5.048-.542-2.305-3.143-10.723.086-11.617 2.595-.707 2.462 9.048 2.735 11.148.277 2.098-.46 3.9 1.922 4.706 3.029 1.028 6.75.924 9.792 2.203 3.076 1.288 2.224 3.647-3.85 2.578-2.073-.364-4.12-.881-6.201-1.184 1.078 2.053 4.928 6.143 1.131 7.35-1.72.542-2.868-2.431-3.592-3.799-1.701-3.219-3.682-6.254-5.464-9.419-.945-1.686-4.548-5.035-1.922-7.014-.009.006 0 0 0 0Z"/>
  <path fill="#fff" d="M53.28 212.891c-.632-1.059 6.5-4.333 8.385-3.628 2.13.804.855 5.654.447 7.269-.835 3.36-2.608 7.922-6.967 7.279-3.386-.494-4.794-3.828-5.83-6.646-1.128-3.064-5.16-15.272-1.71-17.175 2.062-.606 5.197-2.788 6.066.655.421 1.27-1.24 3.905-2.154 2.28-.201-.361-.371-.863-.752-.837-1.74.13.574 15.095 5.177 18.559 2.255.636 2.889-2.73 3.079-4.299.343-2.813.55-3.965-1.218-3.211-.02.01-3.314 1.776-4.524-.246Zm2.764 7.723c-.008.005-.024-.007-.039-.038.015.03.031.043.04.038Z"/>
  <path fill="#7678C7" fill-rule="evenodd" d="M279.193 35.283c-.279 1.76-3.352.692-4.766.516l-1.746 6.102c-3.291-.695-6.584-1.393-9.763-2.206.444-2.05 1.282-5.819 1.282-5.819-1.639-.353-4.411-.502-4.02-2.156.643-2.727 19.354 1.406 19.013 3.563Z" clip-rule="evenodd"/>
  <path fill="#F44040" fill-rule="evenodd" d="M281.42 44.956c.805 2.648-.863 7.441-.888 7.586-9.342-1.551-18.728-3.99-28.062-5.55.389-3.489.506-8.504 4.626-8.316 3.802.173 8.451 1.383 13.188 2.206 4.677.815 10.267 1.225 11.136 4.074Z" clip-rule="evenodd"/>
  <path fill="#D6D7F2" fill-rule="evenodd" d="M247.333 46.823c6.648-.739 13.945 1.356 21.41 2.547 3.397.54 6.853 1.136 10.107 1.866 7.288 1.638 13.334 3.542 14.046 11.541.57 6.43-1.327 13.56-2.57 19.686-.403 1.978-.724 4.313-1.883 5.431-1.274 1.225-3.235 1.216-4.627 2.037-2.83 1.673-5.45 7.38-3.254 12.22.464 1.022 1.246 1.548 2.226 2.376.735.62 1.772 1.509 2.056 2.375.618 1.892.224 5.99-.514 7.639-.667 1.495-2.695 2.105-2.911 3.903-.159 1.32 1.162 2.082 1.369 3.394.207 1.295-.257 2.481-.514 3.734-.287 1.403-.413 2.624-.855 3.395-.821 1.422-3.497 1.709-3.598 3.393-.106 1.751 1.821 2.49 2.053 3.734.369 1.958-.57 4.594-.854 6.958-.305 2.517-.545 5.008-.855 6.959-.696 4.354-1.52 9.296-3.428 12.219-1.512 2.318-5.045 4.515-8.563 4.922-3.74.436-7.752-.218-11.478-.679-6.504-.804-14.339-2.366-20.382-3.902-6.855-1.744-13.836-4.377-13.876-12.729-.024-5.49 1.847-12.34 3.085-17.482.768-3.194.754-5.724 2.911-7.296.684-.499 1.508-.356 1.712-1.7.344-2.242-1.656-2.133-2.053-3.902-.232-1.018.117-2.496.341-3.904.181-1.141.301-2.625.687-3.394.625-1.257 2.525-1.624 2.738-2.886.332-1.935-1.347-2.725-1.54-4.412-.17-1.489.565-3.151 1.028-4.582.478-1.477.828-2.768 1.883-3.564 1.182-.888 2.791-.873 3.939-1.527 3.459-1.967 4.998-8.538 3.085-12.22-1.333-2.562-3.744-2.809-4.456-5.26-.682-2.366.424-5.744.857-8.486 1.229-7.737 2.428-17.681 7.881-21.044 1.4-.863 3.663-1.233 4.797-1.36Z" clip-rule="evenodd"/>
  <path fill="#7678C7" fill-rule="evenodd" d="M288.954 86.537c-.738 1.091-2.417.722-3.425.678-3.648-.158-7.481-.7-11.132-1.186-9.613-1.283-18.801-3.036-28.092-4.753a246.1 246.1 0 0 1-6.853-1.359c-2.031-.437-4.411-.597-5.654-2.376.12-.695 1.196-.879 1.886-.847 15.638.709 33.838 3.984 47.792 7.468 1.883.467 4.386.925 5.478 2.374Zm-8.392 16.291c-.474 1.075-1.91.716-2.74.68-2.911-.126-5.993-.793-8.909-1.187-7.953-1.079-15.671-2.368-23.122-3.904-3.643-.75-7.308-1.4-10.277-3.054.536-1.13 3.039-.935 4.967-.849 6.615.288 14.06 1.913 21.068 3.223 5.314.995 10.289 1.812 14.904 3.226 1.483.455 3.207.687 4.109 1.865Zm1.028 15.616c-.631 1.114-2.327.725-3.254.678-7.892-.401-15.708-2.333-23.125-3.734-6.481-1.222-12.99-2.434-19.357-3.732-1.96-.403-4.243-.364-5.822-1.697.054-1.038 1.096-1.097 1.886-1.189 2.188-.261 4.724.135 7.194.339 10.794.89 22.292 3.074 31.857 5.432 3.093.761 5.94 1.549 8.736 2.545.751.267 2.003.145 1.885 1.358Zm-53.611 5.429c.844-2.188 3.92-1.546 5.993-1.356 13.735 1.251 26.672 4.012 38.709 7.467.677.192 1.649.331 3.085.849.134.047 2.36.625 2.056 1.697-.425 1.489-5.149.163-6.166 0-5.089-.815-7.956-1.568-12.847-2.208-8.892-1.158-17.133-2.705-25.351-4.581-1.875-.428-4.071-.523-5.479-1.868Z" clip-rule="evenodd"/>
  <path fill="#fff" fill-rule="evenodd" d="M272.193 147.794c2.349 2.686 5.956-5.796 2.43-5.591-1.835.107-2.576 3.871-2.43 5.591Zm1.128 6.094c.006-.751-.385-2.296-1.91-2.201-1.989.125-3.791 3.669-4.772 4.938-1.195 1.543-4.151 3.921-3.291 5.942 1.229 2.883 5.043-1.337 6.294-2.843.662-.801 1.235-1.651 1.763-2.355.905-1.206 1.897-2.033 1.916-3.481Zm-29.285-102.44c-2.017 2.438 5.666 3.877 6.241 1.595.671-2.679-4.478-2.615-6.029-1.81-.097.05-.139.132-.212.215Zm9.431.395c-1.352 2.183 5.054 3.752 5.188 1.11.103-2.005-4.26-2.617-5.188-1.11Z" clip-rule="evenodd"/>
  <path fill="#7678C7" fill-rule="evenodd" d="M194.639 181.688c-1.071 8.348-1.138 16.508-2.526 24.053-2.774 15.046-8.738 27.098-17.935 36.801-2.123 2.243-4.693 4.705-7.263 6.755-1.819 1.451-3.791 3.419-6.174 4.499-.735.333-1.805.897-2.609.171-.238-1.76 1.072-3.255 2.053-4.366 1.092-1.233 2.411-2.299 3.495-3.367 6.802-6.714 13.417-13.567 17.918-22.607 5.916-11.893 7.302-27.068 8.679-43.293-11.484-4.297-25.991-7.115-41.741-4.087-12.11 2.327-22.357 7.637-30.492 13.738-1.154.866-2.268 1.674-3.422 2.409-.321-.76-.707-1.445-1.103-2.113-.042-.827.908-1.168 1.405-1.595 8.339-7.099 19.413-12.808 32.847-15.666 15.965-3.395 31.145-.572 42.936 3.464 1.573-11.32 4.643-21.794 10.52-30.173 5.627-8.018 14.264-15.089 26.726-16.495 9.716-1.095 16.228 2.04 21.494 6.235 5.249 4.181 9.85 9.805 9.842 19.421-.006 7.128-3.383 13.109-7.233 17.535-3.941 4.531-9.601 8.09-15.423 10.43-6.632 2.669-14.532 3.892-22.385 3.107-7.028-.702-13.467-2.943-19.609-4.856Zm29.935.628c10.406-1.292 19.001-6.066 24.402-12.109 2.693-3.014 5.104-7.033 5.986-11.45 2.308-11.535-5.246-18.924-12.26-22.672-4.098-2.189-9.459-3.187-15.167-2.282-11.085 1.756-18.541 7.994-23.474 15.735-5.051 7.938-7.853 17.789-9.13 28.31 9.065 2.904 18.15 5.898 29.643 4.468Z" clip-rule="evenodd"/>
  <path fill="#D6D7F2" fill-rule="evenodd" d="M77.564 190.702c5.612-4.003 11.28-7.661 21.05-7.73 6.41-.046 11.162 2.145 14.769 5.25 3.721 3.202 6.378 7.667 6.182 14.412-.265 9.064-4.783 15.111-10.073 19.844-1.391 1.245-2.674 2.422-4.302 3.458-.551.353-1.283.508-1.727.907-.673.608-.704 1.168-.868 1.38-.774.996-2.576 2.354-4.336 2.931-1.472.481-3.143.566-3.344-.708-.204-1.289 2.1-2.057 3.652-2.886 4.237-2.259 8.258-5.118 11.124-8.27 3.676-4.042 7.447-10.411 7.506-17.161.05-5.855-2.361-10.023-5.375-12.614-3.964-3.407-9.398-5.078-16.898-4.186-5.107.609-9.719 2.746-13.264 4.973-2.047 1.286-5.646 3.705-8.163 5.299-.475.301-2.327 1.391-3.118.6-1.014-1.014.257-2.874 1.118-3.777 1.608-1.68 3.888-2.791 6.067-1.722Z" clip-rule="evenodd"/>
  <path fill="#F44040" fill-rule="evenodd" d="M74.811 190.361c.88-.173 2.528-.252 3.741.304 1.506.689 2.425 2.145 3.553 3.724 3.302 4.628 5.772 7.937 9.255 12.771 2.864 3.968 6.163 8.744 9.132 12.914 1.112 1.565 2.411 3.271 2.657 4.741.785 4.717-4.028 8.732-8.663 6.436-2.416-1.197-4.65-5.434-6.607-8.167a2886.815 2886.815 0 0 1-15.361-21.651c-.93-1.328-2.366-2.821-2.528-4.884-.26-3.244 2.115-5.65 4.821-6.188Z" clip-rule="evenodd"/>
  <path fill="#000" d="M82.718 197.352c.343-.134.877-.123 1.282-.327-.187-.259-.38-.524-.57-.791-1-.044-2.056.549-2.925.989-2.511 1.273-4.336 2.735-5.883 4.754-.263.341-.606.751-.877 1.193.346.497.695.99 1.044 1.485.408-.605.593-1.391.987-1.934 1.544-2.152 4.349-4.356 6.942-5.369Zm-1.626 12.8c1.629-1.782 4.707-4.313 7.235-5.114.36-.115.897-.083 1.33-.237l-.735-1.01c-.464-.017-.944.089-1.355.203-2.732.764-6.017 3.489-7.766 5.424-.29.322-.645.675-.91 1.042.317.45.636.901.955 1.348.522-.419.818-1.186 1.246-1.656ZM93.196 214c.57-.605 1.293-1.256 1.598-2.015l-.441-.625c-1.478 1.591-3.042 3.1-4.905 4.25-1.459.9-3.126 1.435-4.674 2.219-.134.066-.33.115-.523.174.268.38.54.757.81 1.137.732-.186 1.476-.637 2.08-.919 2.468-1.159 4.418-2.485 6.055-4.221Zm5.017 7.042c.587-.57 1.257-1.23 1.57-1.968-.204-.285-.405-.57-.609-.86-1.966 2.415-4.874 4.608-7.922 5.878-.645.268-1.54.322-2.227.687.257.39.517.791.782 1.195a.237.237 0 0 1 .056-.016c3.386-.871 6.311-2.939 8.35-4.916Z" opacity=".31"/>
  <path fill="#7678C7" fill-rule="evenodd" d="M117.254 189.801c-.012.504.195 1.194-.036 1.503.6.703 1.422.788 1.625 1.667.221.954-.209 1.964-1.089 2.257-1.824.609-6.173-.778-5.165-3.075-1.123-.667-2.861-.808-2.788-2.547.137-3.201 6.188-1.253 7.453.195Z" clip-rule="evenodd"/>
  <path fill="#D6D7F2" fill-rule="evenodd" d="M122.623 252.764c5.414-4.13 10.895-7.923 20.577-8.372 6.358-.299 11.152 1.658 14.84 4.548 3.807 2.984 6.609 7.24 6.665 13.835.075 8.863-4.18 14.945-9.249 19.778-1.33 1.266-2.557 2.467-4.135 3.543-.536.365-1.254.546-1.679.953-.642.619-.651 1.17-.807 1.383-.735 1.003-2.47 2.399-4.193 3.031-1.442.528-3.093.675-3.342-.559-.248-1.253 2.009-2.094 3.514-2.962 4.121-2.372 7.996-5.321 10.722-8.511 3.492-4.091 6.992-10.463 6.802-17.056-.168-5.719-2.712-9.698-5.797-12.11-4.059-3.173-9.509-4.594-16.909-3.428-5.039.795-9.537 3.06-12.968 5.375-1.98 1.336-5.458 3.839-7.894 5.494-.461.313-2.255 1.451-3.068.707-1.048-.949.148-2.816.969-3.732 1.532-1.704 3.751-2.878 5.952-1.917Z" clip-rule="evenodd"/>
  <path fill="#F44040" fill-rule="evenodd" d="M119.366 252.334c.869-.207 2.517-.351 3.746.158 1.534.632 2.509 2.051 3.696 3.586 3.481 4.497 6.079 7.71 9.75 12.406 3.017 3.854 6.497 8.501 9.627 12.555 1.175 1.52 2.542 3.176 2.841 4.634.972 4.683-3.682 8.879-8.403 6.765-2.461-1.105-4.858-5.251-6.923-7.907a3097.638 3097.638 0 0 1-16.191-21.045c-.986-1.292-2.478-2.729-2.721-4.784-.383-3.233 1.891-5.728 4.578-6.368Z" clip-rule="evenodd"/>
  <path fill="#000" d="M127.537 259.014c.341-.149.872-.155 1.268-.373-.198-.253-.399-.51-.603-.767-.998-.01-2.029.624-2.883 1.099-2.458 1.367-4.224 2.896-5.691 4.973-.248.354-.581.777-.83 1.227.367.483.735.966 1.101 1.443.386-.619.542-1.41.908-1.969 1.464-2.209 4.18-4.52 6.73-5.633Zm-1.123 12.855c1.553-1.844 4.534-4.49 7.032-5.389.351-.127.891-.115 1.315-.286l-.774-.983c-.463.004-.938.129-1.344.256-2.701.866-5.875 3.718-7.545 5.717-.279.334-.623.698-.871 1.078.335.436.67.876 1.008 1.31.503-.439.769-1.217 1.179-1.703Zm12.244 3.38c.548-.625 1.243-1.306 1.517-2.074a54.3 54.3 0 0 0-.464-.609c-1.419 1.649-2.919 3.214-4.735 4.436-1.422.956-3.067 1.555-4.584 2.396-.131.072-.324.127-.517.194l.855 1.104c.726-.212 1.45-.694 2.045-.996 2.422-1.255 4.316-2.652 5.883-4.451Zm5.288 6.845c.565-.593 1.21-1.279 1.492-2.026l-.642-.838c-1.869 2.489-4.69 4.793-7.682 6.179-.637.293-1.528.381-2.198.771l.824 1.164a.783.783 0 0 0 .056-.017c3.351-1.002 6.192-3.18 8.15-5.233Z" opacity=".31"/>
  <path fill="#7678C7" fill-rule="evenodd" d="M161.752 250.145c.008.503.243 1.186.02 1.505.631.678 1.453.732 1.693 1.604.26.941-.134 1.969-1.001 2.296-1.799.678-6.199-.541-5.282-2.873-1.151-.626-2.891-.701-2.885-2.439.01-3.207 6.137-1.492 7.455-.093Z" clip-rule="evenodd"/>
</svg>
