<svg xmlns="http://www.w3.org/2000/svg" width="212" height="276" fill="none" viewBox="0 0 212 276">
  <g clip-path="url(#a)">
    <path fill="#FFB4A3" fill-rule="evenodd" d="M139.199 60.784c1.951 2.513 15.878 17 21.685 22.958 5.077 5.21 20.969 17.627 23.159 18.881 1.165.523 2.276 1.032 3.122 1.386 1.516.637 3.101 1.302 4.568 1.896 1.391.559 5.962 2.376 5.308 4.032-.54 1.37-4.715-.857-5.99-.987 1.494 1.398 3.474 3.995 4.709 7.023.324.798 1.103 2.437.352 2.842-1.025.553-1.699-.73-2.142-1.257-.612-.741-1.154-1.227-1.547-1.939.222 1.163 1.472 3.542 1.51 4.95.009.457-.177 1.022-.592 1.15-.967.295-1.451-1.039-1.961-1.855-.687-1.104-1.229-1.783-1.686-2.55-.009-.037-.024-.077-.032-.108.006.028.015.061.023.089l.009.019c.279.94 1.496 3.46 1.578 4.822.033.545-.111 1.204-.655 1.351-1.139.307-1.952-1.895-2.36-2.618-.701-1.263-1.279-2.103-1.839-3.197.087.996 1.379 3.582 1.586 5.311.09.72.035 1.568-.671 1.729-.893.201-1.796-1.529-2.126-2.104-1.57-2.761-3.346-5.83-5.105-7.789a25.988 25.988 0 0 0-4.295-3.85c-7.1-4.229-20.683-13.729-26.624-19.214-6.139-5.668-19.672-18.105-23.672-23.23 2.768-.732 11.435-6.412 13.688-7.741Z" clip-rule="evenodd"/>
    <path fill="#DD9083" d="M129.117 66.859c4.498 5.926 15.945 17.828 21.334 23.457 5.202 5.428 16.777 14.723 23.865 19.746-7.373-4.563-19.584-13.183-25.133-18.306-6.139-5.668-19.671-18.105-23.671-23.23.804-.212 2.109-.847 3.605-1.667Zm28.273 20.199c-.263-.412 1.213-2.43 2.691-4.144.278.29.553.569.803.827.313.321.666.67 1.055 1.039-1.767 1.462-4.29 2.691-4.549 2.278Z"/>
    <path fill="#7678C7" d="M111.43 43.354c5.362-1.752 10.443 1.96 13.76 4.265 9.025 6.268 15.675 13.626 23.156 21.567l-13.97 14.665c-4.978-3.806-9.819-7.761-14.249-11.972-2.479-2.361-5.171-5.053-7.606-8.18-2.289-2.951-4.598-6.678-5.316-10.935-.712-4.212.623-8.234 4.225-9.41Z"/>
    <path fill="#FFB4A3" fill-rule="evenodd" d="m115.689 233.994-16.771 6.131-7.417-21.144 16.769-6.128 7.419 21.141Z" clip-rule="evenodd"/>
    <path fill="#EFF973" fill-rule="evenodd" d="M117.756 231.487c4.507-.544 8.767-.768 12.725.494 1.19.376 2.899.879 3.257 2.181.485 1.731-2.317 3.359-4.716 4.625-5.047 2.648-9.919 4.732-15.479 6.822-4.497 1.693-8.692 2.87-11.255.903-1.881-1.445-3.143-3.748-4.457-6.046-1.312-2.292-2.34-4.669-3.185-7.675 3.507-2.062 8.381-4.367 13.291-6.194-1.337-2.793-.098-4.524 2.854-5.99 1.009-.503 2.806-1.113 3.48-.781 1.368.684 3.292 9.741 3.485 11.661Z" clip-rule="evenodd"/>
    <path fill="#484FA3" d="M118.495 221.891c.191.011.382.049.576.118.452.157.761.513.931 1.067.619 2.041-.857 6.642-1.837 8.028a.535.535 0 0 1-.42.229.462.462 0 0 1-.399-.203c-.613-.969-1.581-6.567-.296-8.477.351-.52.865-.787 1.445-.762Zm-.62 7.826c.817-1.801 1.599-4.96 1.188-6.326-.091-.281-.212-.455-.372-.516a2.442 2.442 0 0 0-.313-.065c-.161-.003-.332.025-.517.301-.832 1.236-.435 4.845.014 6.606Z"/>
    <path fill="#484FA3" d="M122.978 223.128c.438.024.823.235 1.135.649.275.356.32.832.14 1.407-.639 2.123-4.407 5.459-5.983 6.191a.48.48 0 0 1-.466-.013.406.406 0 0 1-.205-.381c.044-1.08 1.949-5.545 3.834-7.184.539-.471 1.053-.694 1.545-.669Zm-4.153 6.859c1.677-1.186 4.068-3.572 4.507-4.994.089-.299.083-.513-.012-.647-.158-.19-.312-.289-.455-.299-.212-.015-.486.124-.803.402-1.314 1.144-2.683 3.979-3.237 5.538Z"/>
    <path fill="#484FA3" d="m125.17 228.902-7.165 1.622.16.894 7.167-1.623-.162-.893Z"/>
    <path fill="#fff" d="M127.364 233.355c-3.693 3.52-9.308 4.816-13.141 3.402-3.385-1.25-5.444-4.344-7.355-8.367-.161-.342-.359-.745-.555-1.168a87.326 87.326 0 0 1 1.624-.625 5.973 5.973 0 0 1-.42-1.169c.075.254.153.504.257.739 2.261 5.212 6.263 11.646 14.075 8.652 2.022-.774 3.513-1.87 4.549-2.937a4.36 4.36 0 0 0 .497-.649c.695.082 1.382.184 2.057.337-.449.684-1.109 1.33-1.588 1.785Zm-28.56 6.843c5.036-2.726 8.885-.865 11.548 2.337.616.743 2.14 2.494 2.04 3.495-.46.163-.913.32-1.36.465-.603-.454-1.108-1.543-1.676-2.321-2.872-3.924-5.517-4.84-9.854-2.513-.247.131-.462.327-.68.52-.294-.49-.576-.99-.864-1.492.28-.187.582-.35.846-.491Z"/>
    <path fill="#484FA3" d="M103.095 246.994c2.589 1.241 6.392.135 10.448-1.386 5.56-2.089 10.432-4.174 15.479-6.821 2.149-1.129 4.606-2.557 4.756-4.084l-30.683 12.291Z"/>
    <path fill="#C12B2B" fill-rule="evenodd" d="M85.325 137.722c6.775 32.098 15.252 46.825 24.973 76.091-.796 1.046-16.9 7.939-20.465 9.561-17.431-28.755-24.413-47.138-34.893-82.567 11.184.238 21.292-1.623 30.385-3.085Z" clip-rule="evenodd"/>
    <path fill="#fff" fill-rule="evenodd" d="M69.41 166.956c.76 1.101.54 4.355-.865 4.45-1.451.102-1.07-3.211-.468-4.372.296-.256.927-.296 1.333-.078Zm2.93 6.793c1.823-.808 1.658 2.28 1.447 4.243-.142 1.332-.446 2.888-1.416 2.795-1.363-.117-1.115-5.808-.399-6.804.065-.093.26-.185.368-.234Z" clip-rule="evenodd"/>
    <path fill="#7678C7" fill-rule="evenodd" d="M156.429 117.904c.915-1.767 4.069-.083 5.555.644 10.847 5.313 20.259 11.083 33.922 14.582 1.994.51 5.752 1.333 6.377.128.695-1.345-.956-3.337-1.768-4.467-5.437-7.558-14.248-11.82-22.656-17.232-1.466-.941-4.329-2.616-2.119-4.048 3.337.171 7.972 2.937 10.75 4.438 6.189 3.35 11.888 7.095 16.233 12.228 2.047 2.423 4.634 5.768 4.096 9.3-.402 2.668-2.394 3.878-4.342 4.674.477 3.915.318 7.911.295 11.903-.066 11.996-.04 23.807-.42 36.475-.365 12.352-.503 24.398-1.424 37.269-.299 4.23-.691 9.637-4.283 9.394-2.909-.192-3.257-3.293-3.489-6.641-.216-3.134-.298-6.967-.309-9.164-.106-18.934 2.944-70.132 3.205-72.37.266-2.322.566-4.601.615-6.626-13.431-2.824-22.422-7.572-32.992-13.408-1.169-.645-3.138-1.726-4.694-2.825-1.303-.919-3.292-2.823-2.552-4.254Z" clip-rule="evenodd"/>
    <path fill="#484FA3" fill-rule="evenodd" d="M202.477 138.152c1.948-.796 3.94-2.007 4.342-4.674.538-3.532-2.049-6.877-4.096-9.3-4.345-5.133-10.043-8.878-16.233-12.228-2.778-1.502-7.413-4.268-10.75-4.438-2.21 1.432.653 3.107 2.119 4.048 8.408 5.412 17.219 9.674 22.656 17.232.812 1.13 2.463 3.123 1.768 4.467-.625 1.204-4.383.382-6.377-.128-13.663-3.5-23.075-9.269-33.922-14.582-1.486-.727-4.64-2.411-5.555-.644-.74 1.431 1.249 3.335 2.552 4.254 1.556 1.099 3.525 2.18 4.694 2.825 10.57 5.836 19.562 10.584 32.992 13.408 1.475.342 5.275.149 5.81-.24Z" clip-rule="evenodd"/>
    <path fill="#484FA3" d="M50.41 167.75c.461-.767 1.026-1.466 1.845-1.853 1.685-.799 3.64-.266 5.806-.616-.197-5-.044-11.78-.273-16.805-2.27-.069-4.289.494-6.594.409-2.295-.086-6.71-1.102-6.874-1.868-.338-1.574-.125-3.489.032-5.151.34-3.538 1.274-5.678 5.014-5.712 4.992-.05 9.47.847 16.107 1.748 2.982.406 5.153.623 7.935 1.026 2.384.347 6.137.771 7.233 1.939 1.412 1.506 1.865 5.313 1.193 7.102-.029.078-.064.147-.098.216 0 0-3.431.58-6.309.713-3.667.169-8.616-.153-11.58-.112.222 4.981.021 12.204.278 16.807 2.072.516 4.694.08 6.303 1.101.894.565 1.216 2.176 1.729 3.204-4.225-.585-8.463-1.184-12.75-1.597-2.99-.287-5.963-.438-8.997-.551Z"/>
    <path fill="#7678C7" d="M45.276 149.003c-.497-.538-.79-1.226-.956-1.995.605-.066 1.243-.06 1.756-.102 6.109-.504 12.8-.539 19.13-.285 4.665.185 9.242.364 13.528.851.909.104 2.26.034 3.002.713-.93 2.027-3.432 1.987-6.308 2.119-3.639.168-8.538.446-11.51.492a79.324 79.324 0 0 1-2.432-.134 85.221 85.221 0 0 0-3.698-.174c-2.27-.069-4.289-.112-6.595-.197-.38-.015-.762-.023-1.143-.033-.97-.059-1.91-.148-2.834-.261-.773-.175-1.45-.468-1.94-.994Z"/>
    <path fill="#484FA3" fill-rule="evenodd" d="M45.417 262.802c-4.514-.581-9.693.661-10.248 5.106-.368 2.916 1.117 5.325 2.994 6.321 1.99 1.057 5.786.791 9.461.747 43.062-.516 86.218 0 129.553-.516 3.061-.036 6.827-.004 9.62.057 3.768.081 7.356.25 9.615-.631 2.585-1.005 4.325-3.515 3.876-6.575-.723-4.908-6.188-5.577-11.575-5.016-1.04-1.834-1.412-3.995-2.136-5.989-.705-1.96-1.605-3.799-2.469-5.642-1.734-3.69-3.797-8.152-7.511-10.047-5.19-2.652-13.066-2.576-20.819-2.329-7.83.248-16.115.361-23.192.276-7.738-.093-15.692-.191-23.027-.412-8.059-.243-16.501.357-23.549-.405-2.555-.277-5.553.037-8.245.097-2.659.059-5.34.214-7.726.436-5.095.474-9.97.849-13.544 2.738-3.55 1.88-5.686 5.61-7.277 9.194-1.71 3.849-2.424 8.325-3.801 12.59Z" clip-rule="evenodd"/>
    <path fill="#fff" fill-rule="evenodd" d="M113.127 263.712c.656 1.225 2.351.926 3.449.989 15.328.891 32.459.13 48.624-.064 4.549-.056 8.893-.082 13.23-.329 1.168-.068 2.563-.053 3.599-.731-.268-1.079-2.161-1.039-3.279-1.164-11.606-1.294-26.484-1.173-39.695-.385-7.064.421-13.739.053-20.444.417-.979.053-2.233.062-3.264.209-.743.108-1.867.254-2.22 1.058Zm-4.805.401c-.717-1.137-2.541-1.175-4.141-1.324-3.488-.33-7.777-.449-12.03-.201-1.68.099-5.536.163-5.307 1.61.2 1.274 6.144 1.065 7.57 1.114 3.938.132 8.953.272 11.858-.144.794-.113 1.888-.305 2.05-1.055Z" clip-rule="evenodd"/>
    <path fill="#7678C7" fill-rule="evenodd" d="M42.045 167.48c-11.177-.4-21.198 2.785-28.08 8.582-6.267 5.281-11.555 13.747-12.777 23.521-1.485 11.895 2.444 21.816 7.558 28.434 5.478 7.093 12.558 11.778 21.992 14.343 9.551 2.596 20.718 3.284 32.008 4.084 11.458.812 22.756.702 34.895 1.131 11.831.418 23.715.106 35.562-.596 11.801-.699 23.643-.576 35.034-1.621 17.173-1.577 32.139-4.085 39.334-15.591 2.364-3.776 4.059-8.687 3.782-14.306-.552-11.15-7.037-17.144-15.034-21.472-7.676-4.153-18.483-6.542-27.596-8.604-19.907-4.507-40.247-7.373-61.641-10.606-10.66-1.611-21.086-3.022-31.67-4.433-5.3-.707-10.615-1.524-16.004-2.043-5.67-.545-11.27-.607-17.363-.823Z" clip-rule="evenodd"/>
    <path fill="#484FA3" d="M199.183 198.968c-7.673-4.154-18.482-6.543-27.596-8.604-19.907-4.507-40.244-7.373-61.641-10.607-10.66-1.609-21.084-3.021-31.668-4.432-5.304-.707-10.619-1.525-16.004-2.043-5.674-.545-11.275-.606-17.365-.823-11.176-.398-21.196 2.787-28.08 8.583-6.265 5.279-11.554 13.746-12.775 23.52-1.048 8.379.597 15.771 3.445 21.727-4.479-6.565-7.676-15.801-6.312-26.708 1.222-9.774 6.51-18.24 12.778-23.521 6.881-5.797 16.902-8.982 28.08-8.582 6.091.216 11.69.278 17.362.822 5.389.519 10.703 1.336 16.004 2.044 10.584 1.411 21.009 2.823 31.669 4.432 21.394 3.234 41.733 6.099 61.641 10.606 9.114 2.063 19.92 4.451 27.597 8.605 5.772 3.124 10.743 7.127 13.277 13.3-2.698-3.501-6.358-6.126-10.412-8.319Z"/>
    <path fill="#fff" fill-rule="evenodd" d="M15.75 181.538c-.937-1.039-2.317.788-3.243 1.929-1.69 2.086-4.557 6.806-4.868 9.337-.227 1.793.205 3.25 1.07 3.424 1.544.309 2.04-1.67 2.54-3.124 1.051-3.053 1.943-5.061 3.342-7.771.621-1.204 1.988-2.975 1.16-3.795Zm-8.373 18.314c-1.726-.436-1.743 3.177-1.652 5.518.208 5.348 1.73 9.746 4.12 14.041 5.016 9.015 13.681 16.508 25.998 18.763 2.508.458 6.67 1.118 6.868-.77.163-1.615-2.456-2.23-3.814-2.704-5.397-1.88-9.456-2.27-14.322-4.983-7.284-4.06-12.047-11.139-14.505-20.275-.225-.828-.722-2.649-1.087-4.798-.324-1.885-.147-4.423-1.606-4.792Zm157.98-8.588c.183 1.788 6.297 2.061 6.538.782.365-1.942-6.762-2.953-6.538-.782Zm40.484 23.23c1.796-.705.039-3.201-.567-4.461-1.941-4.036-5.07-7.582-8.543-10.208-4.867-3.683-11.15-6.764-17.445-7.525-1.398-.169-3.508-.226-3.769.734-.511 1.871 2.904 2.211 3.981 2.53 5.088 1.502 9.48 3.284 13.303 6.026 4.085 2.93 6.621 6.087 9.569 10.024.753 1.005 1.813 3.531 3.471 2.88Zm-1.954 8.958c-1.147 3.327-3.111 6.354-5.567 8.658-1.167 1.093-3.819 2.73-3.567 3.48.492 1.461 3.323-.278 4.454-1.257 3.271-2.834 7.308-8.254 7.745-13.323.066-.797.063-1.79-.2-2.232a.867.867 0 0 0-.52-.508c-1.282-.352-1.758 3.481-2.345 5.182ZM112.699 189.6c-10.387-.535-17.849 5.674-21.329 12.626-1.567 3.13-2.142 5.769-2.305 8.448-.467 7.694 2.356 12.976 6.392 17.106 4.064 4.158 9.738 7.058 16.061 7.025 6.449-.035 12.444-2.769 16.412-7.069 3.724-4.035 6.568-9.823 5.981-17.254-.35-4.423-2.398-9.567-4.271-12.151-3.171-4.38-8.558-8.299-16.941-8.731Z" clip-rule="evenodd"/>
    <path fill="#7678C7" fill-rule="evenodd" d="M112.156 199.8c-5.696-.294-9.786 3.112-11.696 6.924-.86 1.716-1.174 3.164-1.262 4.633-.255 4.219 1.293 7.115 3.506 9.38 2.226 2.281 5.34 3.872 8.806 3.852 3.537-.019 6.825-1.517 9.002-3.877 2.042-2.211 3.601-5.386 3.278-9.461-.191-2.424-1.315-5.246-2.341-6.662-1.74-2.402-4.694-4.551-9.293-4.789Z" clip-rule="evenodd"/>
    <path fill="#484FA3" fill-rule="evenodd" d="M94.686 220.916c1.808-1.09-.149-3.878-.584-5.835-.454-2.038-.782-4.434-.77-6.865a.875.875 0 0 0-.52-.509c-1.992-.234-1.833 4.669-1.637 6.893.282 3.209 1.607 7.466 3.511 6.316Zm4.042 7.512c.57.504 1.791 1.58 2.416.83 1.044-1.247-1.116-2.274-1.926-3.069-.896-.874-1.758-3.441-2.786-3.058-1.584.587.97 4.12 2.296 5.297Zm.595-13.904c1.014 6.208 5.793 10.459 12.65 10.153a12.989 12.989 0 0 0 2.798-.458c6.225-1.576 10.471-7.175 9.652-13.803-.748-6.076-6.091-11.527-13.534-11.102-.309-3.812-.697-7.55-1.129-11.248 2.82-.394 5.694.545 7.609-.406 1.359-.68 2.477-3.432 2.256-4.947-.871-.802-2.033-.338-3.148-.281-3.248.167-7.248.263-10.746.446-2.171.116-4.436-.444-5.95.706-.129 1.744.034 3.485 1.208 4.271 1.713 1.14 4.645.069 7.118.23.198 3.923.486 7.764.965 11.408-6.443 1.803-10.992 7.426-9.749 15.031Zm10.112-12.337c.489 1.228-.336 7.697 1.416 7.759 1.868.07.434-6.154.408-7.463l-.004-.477c5.19.437 9.077 3.362 9.692 8.139.761 5.897-3.156 11.205-9.296 11.215-2.152 0-4.448-.884-5.985-2.154-6.003-4.945-4.667-16.168 3.769-17.019Z" clip-rule="evenodd"/>
    <path fill="#FFB4A3" d="m107.714 148.653-9.622 19.772 16.016 7.794 9.622-19.772-16.016-7.794Z"/>
    <path fill="#EFF973" fill-rule="evenodd" d="M117.301 175.985c3.535 2.852 6.67 5.745 8.551 9.442.569 1.106 1.412 2.669.752 3.817a1.414 1.414 0 0 1-.345.405c-1.175.944-3.13-.754-5.426-1.517-5.382-1.796-10.249-3.855-15.6-6.399-3.902-1.855-8.112-2.919-9.052-5.619a4.545 4.545 0 0 1-.216-.909c-.303-2.332.431-4.809 1.118-7.325.694-2.504 1.633-4.866 3.148-7.528 3.896 1.099 8.921 3.008 13.636 5.268 1.017-2.867 3.096-3.169 6.189-2.06 1.056.38 2.74 1.247 2.977 1.958.48 1.45-4.52 9.019-5.732 10.467Z" clip-rule="evenodd"/>
    <path fill="#F44040" d="M124.541 169.95c.125.142.233.31.317.494.21.429.177.896-.095 1.392-1 1.845-5.249 3.936-6.908 4.18a.543.543 0 0 1-.454-.142.46.46 0 0 1-.131-.423c.246-1.103 3.489-5.622 5.726-6.009.611-.105 1.156.076 1.545.508Zm-5.917 4.913c1.837-.646 4.598-2.254 5.264-3.479.135-.259.169-.464.098-.622a1.285 1.285 0 0 0-.174-.267c-.107-.118-.247-.221-.568-.167-1.446.256-3.698 3.007-4.62 4.535Z"/>
    <path fill="#F44040" d="M126.809 174.004c.294.329.409.748.337 1.256-.056.439-.356.792-.887 1.062-1.933.994-6.904.579-8.517-.041a.496.496 0 0 1-.317-.345.387.387 0 0 1 .121-.406c.789-.712 5.249-2.4 7.713-2.174.71.067 1.227.28 1.55.648Zm-7.71 1.726c2.004.382 5.351.461 6.646-.199.28-.138.424-.294.451-.452.024-.242-.018-.418-.111-.528-.136-.162-.427-.266-.84-.303-1.718-.151-4.663.809-6.146 1.482Z"/>
    <path fill="#F44040" d="m124.299 179.519-6.148-4.014-.514.73 6.15 4.01.512-.726Z"/>
    <path fill="#fff" d="M122.714 184.136c-5.047-.234-9.885-3.361-11.573-7.071-2.21-4.863-.998-6.208.722-10.987.124-.347.27-.763.428-1.193.529.241 1.055.485 1.577.735.15-.425.328-.788.526-1.103a6.674 6.674 0 0 0-.344.694c-2.511 6.292-3.321 12.661 3.779 15.982 1.958.917 3.768 1.234 5.242 1.24a4.34 4.34 0 0 0 .797-.088c.427.553.839 1.114 1.203 1.704-.793.145-1.707.115-2.357.087ZM97.954 168.4c5.428 1.733 6.816 5.76 6.433 9.848-.088.952-.251 3.238-1.021 3.853a57.947 57.947 0 0 1-1.273-.653c-.103-.742.303-1.851.452-2.787.636-4.077-1.305-7.529-5.134-8.765-.26-.085-.548-.107-.834-.132.14-.542.289-1.087.44-1.635.33.074.654.176.937.271Z"/>
    <path fill="#F44040" d="M96.194 176.11c.938 2.704 4.37 4.668 8.27 6.526 5.351 2.543 10.219 4.602 15.6 6.399 2.296.763 5.014 1.546 6.188.606L96.194 176.11Z"/>
    <path fill="#F44040" fill-rule="evenodd" d="M105.423 150.243c.031.027 16.606 7.002 18.322 7.881.528-.842 9.981-18.326 13.802-26.609 2.424-5.245 6.139-13.589 2.745-19.726-3.729-6.744-18.426-6.239-27.855-4.632-9.876 1.68-18.5 4.667-27.215 7.107.969-2.371 1.987-4.703 2.893-7.146-10.352-4.528-20.753-9-31.597-13.025-4.636 2.669-9.48 7.241-13.42 12.401-3.798 4.985-7.007 10.515-7.4 17.628-.296 5.415 1.326 9.94 3.955 12.529 7.97 7.845 25.483 6.418 38.605 4.175 13.642-2.332 26.63-9.275 37.896-13.187-2.72 5.479-10.509 22.092-10.731 22.604Z" clip-rule="evenodd"/>
    <path fill="#fff" fill-rule="evenodd" d="M135.029 126.141c1.114.292 1.719-1.391 1.866-2.86.149-1.46.141-3.012-.565-3.167-1.117-.236-1.234 1.795-1.388 2.95-.131.958-1.08 2.766.087 3.077Zm4.098-6.668c1.361.335 1.361-3.564.256-3.649-1.555-.119-1.746 3.28-.256 3.649Zm-2.619-2.587c.863-.503.789-2.909.501-4.345-.102-.506.025-.691-.538-.654-.871.063-.752 1.583-.84 2.664-.095 1.119-.463 2.352.877 2.335Z" clip-rule="evenodd"/>
    <path fill="#C12B2B" d="M120.874 119.634c-1.042-.353-6.074 5.558-8.536 9.416 1.281-.5 2.546-.968 3.788-1.398.951-1.44 1.879-2.828 2.809-4.191.779-1.138 2.36-3.686 1.939-3.827Zm-48.337-1.733c.166.786 3.084-.255 4.46-.714 2.98-1.006 5.919-2.016 8.78-3.079-.182.052-.371.106-.555.156.618-1.507 1.248-3.001 1.865-4.518-3.663 1.457-7.788 3.602-10.942 5.297-1.408.758-3.75 2.185-3.608 2.858Z"/>
    <path fill="#fff" fill-rule="evenodd" d="M42.886 132.728c-.284-.118 3.442 2.895 1.911 3.994-1.106.792-2.856-2.076-2.935-3.276.112-.347.597-.688 1.024-.718Zm-3.003-5.982c.878.657 1.49 5.719-.391 5.663-1.233-.03-1.697-4.115-.828-5.48.284-.198.69-.262 1.22-.183Z" clip-rule="evenodd"/>
    <path fill="#FFB4A3" fill-rule="evenodd" d="M121.014 18.604c-2.004-1.03-4.496-1.288-5.726.195-4.175 5.015 2.972 9.562 2.808 10.223-1.339 5.337-4.16 13.137-4.886 16.144-.697 2.94 11.071 9.197 14.163 3.795 0 0 1.964-4.696 3.016-6.785 2.807.534 6.669.318 8.993-1.874 1.266-1.207 2.747-3.872 3.249-6.247.283-1.326.31-3.188.389-5.208.115-3.396 1.869-5.954 1.746-9.29-.076-1.969-1.652-4.42-2.042-5.475-.826-2.25-3.094-4.55-6.532-5.662-4.988-1.606-11.326.333-13.92 4.825-1.161 2.002-1.26 3.55-1.258 5.36Z" clip-rule="evenodd"/>
    <path fill="#DD9083" fill-rule="evenodd" d="M122.823 36.052c-.564 2.585 1.114 8.786 5.746 10.104l1.82-3.979c-4.028-1.26-5.81-3.659-7.566-6.125Z" clip-rule="evenodd"/>
    <path fill="#C12B2B" d="M121.428 37.558c-.152.398-.371.952-.211 1.33l.805.189c.206-.269.116-.745.276-1.123.27-.653.864-1.115 1.177-1.741.693-1.379.788-3.03.223-4.186.625.572 1.327 1.795 1.177 3.169-.08.701-.762 1.914.072 2.135.397-.07.37-.542.485-.847 1.7-4.42-2.656-6.953-5.433-9.178-2.384.048-4.097-2.961-3.588-4.798.226-.818.976-1.462 1.87-1.382 1.939.158 2.749 1.899 3.34 3.383.686-1.12 1.27-2.15 2.344-3.009.972-.771 2.124-1.364 2.695-2.444 1.02-1.93.493-4.641 1.851-6.206-1.014 2.297-.483 5.847-1.944 7.816-.447.61-1.539 1.267-1.178 1.75.265.356.922-.261 1.178-.496a6.273 6.273 0 0 0 1.688-2.682c.534-1.637.448-3.42.913-4.947.786-2.562 2.591-3.26 4.816-3.81 1.667 4.237 4.297 7.885 10.169 9.532.004 1.826-.646 3.408-.931 5.17-.366 2.19-.444 5.339-.608 7.323-.653 7.718-7.717 9.782-7.717 9.782l6.599 1.562c-.008-.31.069-.657.338-1.376-.054.514-.055 1.062.133 1.486l3.625.855c-.074-.602-.561-1.07-.492-1.771.073-.751.773-1.293.965-2.171.035.81-.337 1.521-.412 2.265-.083.835.871 1.28 1.055 1.94l1.679.4c.512-.62.806-1.092.986-1.9.244-1.094-.256-2.275.092-3.248.459-1.288 2.056-1.434 2.163-3.052.046 1.032-.447 1.734-1.014 2.258-.274.257-.701.622-.604 1.038l2.402.6c.876-1.284 1.917-2.758 2.257-4.531.379-1.959-.207-3.866-1.003-5.145-.636-1.036-1.782-1.905-2.285-2.947-1.984-4.11 1.118-7.194 1.465-11.056.244-2.664-.337-5.12-1.816-6.974-1.136-1.417-2.701-2.317-4.362-3.147-1.772-.89-5.074-1.197-6.687-2.316-2.31-1.59-3.09-4.44-7.292-4.993-2.376-.31-4.191.492-5.635 2.232-1.553-.838-2.783-1.753-5.002-2.049-3.719-.484-7.202 1.625-8.776 5.342-.792 1.89-1.353 4.174-2.701 5.335-1.188 1.033-3.056 1.756-4.236 2.848-.915.859-1.826 2.743-2.129 4.123-.553 2.541.264 4.528 1.376 6.007.539.721 1.295 1.258 1.85 1.973.464.616 1.133 1.852.915 2.623-.535 1.91-5.203 1.712-4.939 5.266l3.062.65c.442-1.977 2.143-1.921 3.123-3.021-.587 1.237-2.945 1.941-2.789 4.092l6.112 1.445c.16-.58.458-.99.796-1.386-.091.57-.101 1.113.027 1.578l7.02 1.654c.376-1.617 1.361-2.275 1.977-3.502.107.7-1.012 1.52-1.312 2.283Zm22.827-18.768c-4.205-.887-7.031-3.729-8.335-6.308 1.729 2.126 4.342 4.116 7.318 5.287.315.126.694.25 1.034.343l-.017.678Z"/>
    <path fill="#fff" fill-rule="evenodd" d="M129.098 23.662c3.514-2.495 5.737.458 5.737.458s-.956.981-2.976.916c-1.502-.046-2.761-1.375-2.761-1.375Z" clip-rule="evenodd"/>
    <path fill="#484FA3" fill-rule="evenodd" d="M134.832 24.119s-1.07-1.444-2.94-1.457c-.081.13-.264.384-.301.541-.181.702.204 1.43.881 1.818 1.6-.115 2.36-.902 2.36-.902Z" clip-rule="evenodd"/>
    <path fill="#C12B2B" d="M129.04 21.95c2.477-1.528 5.36-.406 6.295.341l.662-.827c-1.485-1.187-4.794-2.107-7.516-.415l.559.901Z"/>
    <path fill="#fff" fill-rule="evenodd" d="M138.673 24.458c3.264-2.316 5.321.424 5.321.424s-.893.917-2.759.854c-1.396-.047-2.562-1.278-2.562-1.278Z" clip-rule="evenodd"/>
    <path fill="#484FA3" fill-rule="evenodd" d="M143.995 24.882s-.993-1.338-2.73-1.353c-.076.122-.249.359-.283.505-.163.648.192 1.323.819 1.689 1.481-.117 2.194-.84 2.194-.84Z" clip-rule="evenodd"/>
    <path fill="#C12B2B" d="M138.636 22.9c2.283-1.412 4.935-.37 5.796.317l.665-.827c-1.388-1.11-4.479-1.964-7.018-.394l.557.905Z"/>
    <path fill="#fff" fill-rule="evenodd" d="M129.424 30.308c-1.861 2.4.611 6.235 4.331 7.318 1.352.39 3.852.306 4.626-1.052 1.364-2.37-1.122-3-3.125-4-1.945-.981-4.27-4.266-5.832-2.265Z" clip-rule="evenodd"/>
    <path fill="#DD9083" fill-rule="evenodd" d="M135.527 31.475c5.961.563 2.616-4.648 1.901-7.234-.043-.15-.021-.413-.201-.504-1.009-.508-1.938 5.477-1.7 7.738Zm-10.445-4.905a2.033 2.033 0 0 0 1.05 2.675 2.026 2.026 0 0 0 2.67-1.052 2.024 2.024 0 0 0-1.049-2.668 2.027 2.027 0 0 0-2.671 1.046Z" clip-rule="evenodd"/>
    <path fill="#fff" fill-rule="evenodd" d="M119.156 4.398c-1.505-.476 1.324-3.431 1.858-1.97.278.762-1.129 1.726-1.858 1.97Zm-2.682.618c.305-.135 1.003-.248 1.232.383.296.828-.838 2.18-1.183 2.803-.421.755-.876 2.37-1.851 2.378-1.392.01-.334-2.275.063-3.045.208-.412.454-.792.65-1.13.338-.58.498-1.126 1.089-1.389Zm-9.175 11.81c-1.506-.476 1.324-3.431 1.854-1.97.281.763-1.128 1.725-1.854 1.97Z" clip-rule="evenodd"/>
    <path fill="#484FA3" d="M76.967 67.483a283.042 283.042 0 0 1 3.504-4.618c3.988-5.129 8.335-10.678 13.384-15.22 5.282-4.75 11.586-8.678 20.415-8.848.307-.007.604 0 .902.006.996 6.038 5.891 10.04 12.098 10.277.08 3.04 10.482 25.626 5.144 31.906-5.304 6.238-16.559 5.48-19.253 7.747a885.247 885.247 0 0 1-6.543 5.484C98.234 88.85 85.24 79.335 76.967 67.483Z"/>
    <path fill="#FFB4A3" d="M55.871 94.478s8.39-10.374 12.383-15.42c2.956-3.733 5.795-7.663 8.713-11.575 8.273 11.852 21.267 21.367 29.651 26.734-6.462 5.344-12.824 10.276-18.663 13.398 0 0-24.218-9.732-32.084-13.137Z"/>
    <path fill="#fff" fill-rule="evenodd" d="M87.59 104.296c.35 1.357 3.789-.481 3.343-1.497-.462-1.045-3.609.446-3.343 1.497Zm1.05-3.532c.848.523 2.795-.195 3.924-1.122.402-.334.763-.787.468-1.269-.47-.74-1.754.082-2.75.516-1.03.447-2.29.703-1.642 1.875Zm10.252-53.099c-1.895-.877 2.311-4.283 2.769-2.275.235 1.047-1.773 2.074-2.769 2.275Zm-3.626.364c.423-.129 1.362-.16 1.553.707.253 1.135-1.46 2.723-2.017 3.482-.678.922-1.546 2.963-2.825 2.811-1.83-.218-.062-3.04.587-3.986.347-.503.733-.962 1.048-1.373.536-.704.84-1.396 1.654-1.641Z" clip-rule="evenodd"/>
    <path fill="#FFB4A3" fill-rule="evenodd" d="M128.708 71.626c1.861 2.58 15.249 17.569 20.836 23.736 4.883 5.392 20.311 18.38 22.453 19.715 1.144.565 2.238 1.114 3.068 1.498 1.494.693 3.053 1.415 4.496 2.062 1.37.611 5.874 2.593 5.156 4.225-.588 1.348-4.678-1.03-5.946-1.207 1.439 1.453 3.322 4.119 4.444 7.189.297.811 1.014 2.477.25 2.855-1.043.515-1.673-.792-2.095-1.335-.584-.762-1.108-1.269-1.474-1.993.181 1.169 1.339 3.593 1.326 5.001-.006.456-.214 1.014-.635 1.126-.975.26-1.406-1.09-1.887-1.925-.649-1.128-1.166-1.826-1.593-2.609a4.462 4.462 0 0 0-.028-.111c.006.031.014.062.018.092.002.007.007.013.01.019.241.949 1.367 3.512 1.401 4.877.013.546-.155 1.199-.705 1.327-1.15.262-1.882-1.965-2.261-2.704-.655-1.289-1.205-2.149-1.724-3.262.052.999 1.249 3.631 1.392 5.366.062.722-.019 1.568-.734 1.704-.897.167-1.74-1.594-2.046-2.181-1.471-2.816-3.132-5.95-4.818-7.97a26.07 26.07 0 0 0-4.154-4.007c-6.939-4.485-20.165-14.475-25.903-20.173-5.928-5.887-18.994-18.811-22.803-24.079 2.791-.63 11.661-5.99 13.956-7.236Z" clip-rule="evenodd"/>
    <path fill="#DD9083" d="M117.959 77.555c4.883 6.41 14.659 17.225 19.463 22.561 5.411 6.01 18.057 16.72 24.739 21.586a26.086 26.086 0 0 1 2.207 2.153c-.296-.251-.598-.5-.91-.74-6.939-4.485-20.165-14.475-25.903-20.173-5.928-5.887-18.994-18.811-22.803-24.08.727-.164 1.874-.654 3.207-1.307Z"/>
    <path fill="#7678C7" d="M107.42 47.11c5.679-1.445 10.499 2.927 13.656 5.65 7.008 6.036 12.325 12.716 17.755 19.884l-17.015 14.693c-2.942-2.954-5.782-5.981-8.425-9.11-2.301-2.718-4.783-5.796-6.951-9.334-2.041-3.327-4.025-7.487-4.32-12.085-.294-4.55 1.489-8.732 5.3-9.698Z"/>
    <path fill="#fff" d="M107.42 47.11c5.679-1.445 10.499 2.927 13.656 5.65 7.008 6.036 12.325 12.716 17.755 19.884l-17.015 14.693c-2.942-2.954-5.782-5.981-8.425-9.11-2.301-2.718-4.783-5.796-6.951-9.334-2.041-3.327-4.025-7.487-4.32-12.085-.294-4.55 1.489-8.732 5.3-9.698Z" opacity=".2"/>
    <path fill="#fff" fill-rule="evenodd" d="M116.358 55.506c1.205.247 3.541 2.504 2.64 3.44-.938.963-3.199-1.43-3.508-2.56.043-.35.457-.762.868-.88Zm6.707 2.612c.747-1.657 2.559.456 3.639 1.866.727.952 1.483 2.15.767 2.694-1.015.77-4.386-3.085-4.51-4.18-.011-.096.062-.282.104-.38Zm-8.154-7.584c1.089-.132 5.031 2.989 3.634 4.224-.914.805-4.069-1.733-4.387-3.275.074-.327.319-.644.753-.949Z" clip-rule="evenodd"/>
  </g>
  <defs>
    <clipPath id="a">
      <path fill="#fff" d="M0 0h212v276H0z"/>
    </clipPath>
  </defs>
</svg>
