<svg xmlns="http://www.w3.org/2000/svg" width="254" height="209" fill="none" viewBox="0 0 254 209">
  <path fill="#E4E4F4" d="M94.569 13.069c-21.316-7.875-45.24-2.983-62.026 12.365C-.407 55.559-6.426 106.192 5.962 147.309c12.69 42.071 49.67 61.674 91.951 61.674H210.51c34.658 0 76.454-129.632 2.157-150.576-74.296-20.943-79.596-3.317-96.849-29.421-5.233-7.925-12.991-12.868-21.25-15.917Z"/>
  <path fill="#484FA3" d="M136.297 146.22H53.425V90.04c0-11.091 4.313-21.53 12.137-29.37 7.824-7.842 18.24-12.165 29.307-12.165 11.068 0 21.483 4.323 29.308 12.164 7.824 7.842 12.137 18.28 12.137 29.372v56.179h-.017Zm-72.958-9.936H126.4V90.041c0-17.425-14.144-31.6-31.53-31.6-17.388 0-31.532 14.175-31.532 31.6v46.243Z"/>
  <path fill="#484FA3" d="M94.77 209c31.762 0 57.51-25.805 57.51-57.636 0-31.832-25.748-57.637-57.51-57.637-31.763 0-57.512 25.805-57.512 57.637C37.258 183.195 63.007 209 94.77 209Z"/>
  <path fill="#E4E4F4" d="M126.969 121.406c-7.841-7.305-18.34-11.762-29.876-11.762-24.258 0-43.92 19.703-43.92 44.015 0 11.561 4.448 22.099 11.737 29.941-8.643-8.043-14.043-19.52-14.043-32.253 0-24.312 19.66-44.015 43.919-44.015 12.706 0 24.158 5.428 32.183 14.074Z"/>
  <path fill="#59607C" d="M138.705 151.363c0 24.312-19.661 44.015-43.92 44.015a43.644 43.644 0 0 1-29.875-11.761 43.876 43.876 0 0 1-11.736-29.941c0-24.312 19.66-44.015 43.919-44.015a43.64 43.64 0 0 1 29.876 11.762 43.89 43.89 0 0 1 11.736 29.94Z"/>
  <path fill="#FAFAFF" d="M138.705 151.363c0 24.312-19.661 44.015-43.92 44.015a43.644 43.644 0 0 1-29.875-11.761 43.876 43.876 0 0 1-11.736-29.941c0-24.312 19.66-44.015 43.919-44.015a43.64 43.64 0 0 1 29.876 11.762 43.89 43.89 0 0 1 11.736 29.94Z"/>
  <path fill="#fff" d="M94.77 98.519c-29.108 0-52.714 23.658-52.714 52.828-2.675 0-4.815-2.296-4.58-4.976 2.373-27.864 24.542-50.064 52.344-52.46 2.659-.2 4.95 1.927 4.95 4.608Z" opacity=".2"/>
  <path fill="#323744" d="M94.77 147.761c-6.036 0-10.935-4.909-10.935-10.958 0-6.048 4.899-10.957 10.934-10.957 6.036 0 10.934 4.909 10.934 10.957.017 6.049-4.882 10.958-10.934 10.958Z"/>
  <path fill="#323744" d="M94.77 179.277c-4.414 0-7.892-3.72-7.624-8.126l1.789-28.902a5.835 5.835 0 0 1 5.834-5.496 5.847 5.847 0 0 1 5.835 5.496l1.789 28.902c.284 4.406-3.21 8.126-7.624 8.126Z"/>
  <path fill="#fff" d="M56.467 92.403a1.536 1.536 0 0 1-1.538-1.541c0-10.673 4.146-20.693 11.67-28.232 7.523-7.54 17.537-11.695 28.17-11.695.853 0 1.538.687 1.538 1.541 0 .855-.685 1.542-1.538 1.542-20.28 0-36.764 16.537-36.764 36.844 0 .854-.685 1.541-1.538 1.541Z" opacity=".2"/>
  <path fill="#fff" d="M130.513 203.605h86.384c4.949 0 8.978-4.021 8.978-8.997V13.572c0-4.96-4.013-8.998-8.978-8.998h-86.384c-4.948 0-8.978 4.021-8.978 8.998v181.036c0 4.959 4.03 8.997 8.978 8.997Z"/>
  <path fill="#323744" d="M230.539 54.202c-.033-.017-.05-.017-.083-.034V15.331C230.456 6.869 223.601 0 215.158 0h-82.873c-8.443 0-15.297 6.87-15.297 15.33V28.3a1.568 1.568 0 0 0-1.103 1.491v5.998c0 .704.468 1.29 1.103 1.492v10.404a1.568 1.568 0 0 0-1.103 1.492v13.22c0 .703.468 1.306 1.103 1.49v3.184a1.568 1.568 0 0 0-1.103 1.49v13.22c0 .704.468 1.29 1.103 1.492v110.33c0 2.614.652 5.077 1.806 7.238 2.139 4.005 6.001 6.937 10.599 7.808.936.184 1.906.268 2.892.268h82.873c8.192 0 14.863-6.434 15.281-14.543.016-.268.017-.519.017-.787V80.675a1.58 1.58 0 0 0 1.053-1.475V55.66a1.58 1.58 0 0 0-.97-1.458Zm-5.484 139.434c0 .268 0 .519-.033.787-.401 5.111-4.664 9.132-9.864 9.132h-82.873c-5.467 0-9.897-4.44-9.897-9.919V15.331c0-5.48 4.43-9.92 9.897-9.92h82.873c5.467 0 9.897 4.44 9.897 9.92v178.305Z"/>
  <path fill="#323744" d="M181.571 11.393h-15.715a1.157 1.157 0 0 1 0-2.312h15.715c.635 0 1.154.52 1.154 1.156 0 .637-.519 1.156-1.154 1.156Z"/>
  <path fill="#484FA3" d="M142.132 54.604c.318 0 .803.134 1.438.419l2.524 1.206-.066-5.244c.2-.167.501-.318.902-.486.402-.167.836-.234 1.321-.234.602 0 1.12.15 1.538.452.418.302.636.788.636 1.474 0 .235-.034.788-.084 1.66a96.281 96.281 0 0 1-.217 2.496l4.397-2.296c.434.201.835.52 1.203.972.368.436.535.972.535 1.575s-.167 1.039-.518 1.29c-.334.268-.786.536-1.354.821l-2.892 1.324 3.494 4.406a2.667 2.667 0 0 1-.903 1.542c-.485.419-1.02.636-1.622.636-.602 0-1.07-.184-1.421-.57a30.586 30.586 0 0 1-1.12-1.356l-1.689-2.413-2.892 4.222c-.2.084-.368.117-.518.117h-.452c-.919 0-1.621-.2-2.073-.603-.468-.402-.685-.905-.685-1.508s.301-1.24.903-1.926l2.29-2.597-4.698-1.508c-.167-.486-.234-1.006-.234-1.575 0-.687.201-1.24.602-1.66.435-.418.97-.636 1.655-.636Zm25.546 0c.318 0 .803.134 1.438.419l2.524 1.206-.067-5.244c.201-.167.502-.318.903-.486.402-.167.836-.234 1.321-.234.602 0 1.12.15 1.538.452.418.302.635.788.635 1.474 0 .235-.033.788-.083 1.66a91.963 91.963 0 0 1-.218 2.496l4.397-2.296c.435.201.836.52 1.204.972.368.436.535.972.535 1.575s-.167 1.039-.518 1.29c-.335.268-.786.536-1.354.821l-2.893 1.324 3.495 4.406a2.667 2.667 0 0 1-.903 1.542c-.485.419-1.02.636-1.622.636-.602 0-1.07-.184-1.421-.57a30.586 30.586 0 0 1-1.12-1.356l-1.689-2.413-2.892 4.222a1.335 1.335 0 0 1-.518.117h-.452c-.919 0-1.621-.2-2.073-.603-.468-.402-.685-.905-.685-1.508s.301-1.24.903-1.926l2.29-2.597-4.698-1.508c-.167-.486-.234-1.006-.234-1.575 0-.687.201-1.24.602-1.66.435-.418.97-.636 1.655-.636Zm25.546 0c.317 0 .802.134 1.437.419l2.525 1.206-.067-5.244c.201-.167.501-.318.903-.486.401-.167.836-.234 1.32-.234.602 0 1.121.15 1.539.452.418.302.635.788.635 1.474 0 .235-.034.788-.084 1.66a92.062 92.062 0 0 1-.217 2.496l4.397-2.296c.435.201.836.52 1.204.972.367.436.535.972.535 1.575s-.168 1.039-.519 1.29c-.334.268-.785.536-1.354.821l-2.892 1.324 3.494 4.406a2.667 2.667 0 0 1-.903 1.542c-.485.419-1.02.636-1.622.636-.601 0-1.069-.184-1.421-.57a31.303 31.303 0 0 1-1.12-1.356l-1.688-2.413-2.893 4.222c-.2.084-.367.117-.518.117h-.451c-.92 0-1.622-.2-2.073-.603-.468-.402-.686-.905-.686-1.508s.301-1.24.903-1.926l2.29-2.597-4.697-1.508c-.168-.486-.234-1.006-.234-1.575 0-.687.2-1.24.601-1.66.418-.418.97-.636 1.656-.636Z"/>
  <path fill="#F44040" d="M173.613 153.642c18.365 0 33.253-14.92 33.253-33.325s-14.888-33.326-33.253-33.326c-18.365 0-33.253 14.921-33.253 33.326s14.888 33.325 33.253 33.325Z"/>
  <path fill="#fff" d="M169.701 134.927a5.202 5.202 0 0 1-3.645-1.508l-10.599-10.623a5.174 5.174 0 0 1 0-7.321 5.147 5.147 0 0 1 7.306 0l6.954 6.97 15.097-15.13a5.149 5.149 0 0 1 7.306 0 5.175 5.175 0 0 1 0 7.322l-18.758 18.799a5.298 5.298 0 0 1-3.661 1.491ZM36.339 85.299l2.725-.888-2.725-.888a4.813 4.813 0 0 1-3.06-3.066l-.886-2.731-.886 2.73a4.813 4.813 0 0 1-3.06 3.067l-2.725.888 2.726.888a4.813 4.813 0 0 1 3.059 3.066l.886 2.731.886-2.73a4.74 4.74 0 0 1 3.06-3.067ZM74.891 56.28l1.84-.604-1.84-.603a3.21 3.21 0 0 1-2.073-2.077l-.602-1.843-.602 1.843a3.21 3.21 0 0 1-2.073 2.077l-1.839.603 1.84.604a3.21 3.21 0 0 1 2.072 2.077l.602 1.843.602-1.843a3.21 3.21 0 0 1 2.073-2.077Zm-21.968 69.314 5.266-1.726-5.266-1.725a9.24 9.24 0 0 1-5.901-5.915L45.3 110.95l-1.722 5.278c-.92 2.798-3.11 5.01-5.902 5.915l-5.266 1.725 5.266 1.726a9.24 9.24 0 0 1 5.901 5.915l1.723 5.277 1.722-5.277a9.277 9.277 0 0 1 5.901-5.915Z"/>
  <path fill="#484FA3" d="M53.068 36.36a2.29 2.29 0 1 0-4.457-1.06 2.29 2.29 0 1 0 4.457 1.06Zm189.475 4.672a2.895 2.895 0 0 0 2.892-2.898c0-1.6-1.295-2.899-2.892-2.899a2.895 2.895 0 0 0-2.892 2.899c0 1.6 1.295 2.898 2.892 2.898ZM12.8 163.879a4.2 4.2 0 0 0 4.195-4.205 4.201 4.201 0 0 0-4.196-4.206 4.201 4.201 0 0 0-4.196 4.206 4.2 4.2 0 0 0 4.196 4.205Z"/>
</svg>
